<svg width="188" height="153" viewBox="0 0 188 153" fill="none" xmlns="http://www.w3.org/2000/svg">
<rect y="0.751953" width="188" height="152" rx="8" fill="#B081DF"/>
<path d="M0 8.75195C0 4.33368 3.58172 0.751953 8 0.751953H180C184.418 0.751953 188 4.33368 188 8.75195V48.752H0V8.75195Z" fill="white"/>
<rect x="12" y="16.752" width="97" height="6" rx="3" fill="#E8DFF7"/>
<rect x="12" y="26.752" width="68" height="6" rx="3" fill="#E8DFF7"/>
<circle cx="162" cy="24.752" r="14" fill="#E8DFF7"/>
<g clip-path="url(#clip0_309_8145)">
<path d="M167.833 18.9187L161.417 25.3354" stroke="#391952" stroke-width="1.16667" stroke-linecap="round" stroke-linejoin="round"/>
<path d="M167.833 18.9187L163.75 30.5854L161.417 25.3354L156.167 23.002L167.833 18.9187Z" stroke="#391952" stroke-width="1.16667" stroke-linecap="round" stroke-linejoin="round"/>
</g>
<path d="M24.76 91.512V87.528H31.648V84.288H24.76V81.192H32.92V77.952H20.68V94.752H33.16V91.512H24.76ZM34.3572 90.12H40.6932V86.76H34.3572V90.12ZM56.8264 82.368C55.0024 82.368 53.7064 83.328 53.1064 84.84C52.6024 83.352 51.2344 82.368 49.5304 82.368C47.8504 82.368 46.3864 83.328 45.7384 84.864V82.752H41.8984V94.752H45.7384V88.8C45.7384 86.736 46.7224 85.464 47.9224 85.464C48.8824 85.464 49.4104 86.28 49.4104 87.528V94.752H53.2504V88.728C53.2504 86.832 54.1384 85.584 55.3864 85.584C56.2984 85.584 56.8264 86.376 56.8264 87.528V94.752H60.6664V87.528C60.6664 84.216 59.3224 82.368 56.8264 82.368ZM67.5886 82.368C64.3486 82.368 61.7326 83.952 62.3566 86.784H66.1246C66.0046 85.992 66.5566 85.56 67.5406 85.56C69.0046 85.56 69.5326 86.52 69.5566 87.864C68.8366 87.744 67.9726 87.648 67.1086 87.648C63.6766 87.648 61.5166 89.088 61.5166 91.536C61.5166 93.552 62.9806 95.136 65.6926 95.136C67.6846 95.136 69.1486 94.296 70.0366 92.712V94.752H73.3966V87.984C73.3966 84.528 71.4286 82.368 67.5886 82.368ZM66.6766 92.328C65.8366 92.328 65.3086 91.992 65.3086 91.296C65.3086 90.576 65.8606 90.12 67.4686 90.12C68.0686 90.12 68.9086 90.192 69.6286 90.408C69.0286 91.584 67.9486 92.328 66.6766 92.328ZM76.7759 81.408C77.9999 81.408 78.9359 80.472 78.9359 79.248C78.9359 78.024 77.9999 77.088 76.7759 77.088C75.5519 77.088 74.6159 78.024 74.6159 79.248C74.6159 80.472 75.5519 81.408 76.7759 81.408ZM74.8319 94.752H78.6719V82.752H74.8319V94.752ZM80.3519 94.752H84.1919V77.952H80.3519V94.752ZM105.659 82.752L103.691 91.08L101.915 82.752H97.8351L95.9871 91.32L94.0911 82.752H90.0111L93.4191 94.752H98.2191L99.8511 87.36L101.483 94.752H106.283L109.691 82.752H105.659ZM117.611 82.368C115.979 82.368 114.755 83.256 114.179 84.72V82.752H110.339V94.752H114.179V88.8C114.179 86.856 114.971 85.608 116.027 85.608C116.771 85.608 117.227 86.208 117.227 87.12C117.227 87.84 116.939 88.608 116.459 89.496H120.419C120.875 88.56 121.139 87.456 121.139 86.376C121.139 83.904 119.723 82.368 117.611 82.368ZM123.923 81.408C125.147 81.408 126.083 80.472 126.083 79.248C126.083 78.024 125.147 77.088 123.923 77.088C122.699 77.088 121.763 78.024 121.763 79.248C121.763 80.472 122.699 81.408 123.923 81.408ZM121.979 94.752H125.819V82.752H121.979V94.752ZM136.331 85.992V82.752H132.851V79.416H129.011V82.752H126.539V85.992H129.011V90.576C129.011 92.352 129.443 95.136 133.475 95.136C134.603 95.136 135.467 94.92 136.067 94.536V91.248C135.419 91.656 134.963 91.896 134.243 91.896C133.139 91.896 132.851 91.32 132.851 90.576V85.992H136.331ZM139.228 81.408C140.452 81.408 141.388 80.472 141.388 79.248C141.388 78.024 140.452 77.088 139.228 77.088C138.004 77.088 137.068 78.024 137.068 79.248C137.068 80.472 138.004 81.408 139.228 81.408ZM137.284 94.752H141.124V82.752H137.284V94.752ZM150.292 82.368C148.492 82.368 147.124 83.28 146.524 84.792V82.752H142.684V94.752H146.524V88.8C146.524 86.808 147.46 85.464 148.756 85.464C150.364 85.464 150.364 86.904 150.364 87.768V94.752H154.204V87.768C154.204 86.304 154.204 82.368 150.292 82.368ZM163.245 92.064C165.357 90.72 166.509 88.8 166.509 86.904C166.509 86.4 166.437 85.896 166.269 85.464C167.277 84.384 167.805 82.704 167.541 81.264H164.901C165.093 82.104 165.189 82.968 165.021 83.688C164.037 82.848 162.597 82.368 160.797 82.368C157.365 82.368 155.085 84.192 155.085 86.856C155.085 89.376 157.101 90.984 160.053 90.984C160.653 90.984 161.181 90.912 161.685 90.792C160.725 91.56 159.285 92.112 157.197 92.328V94.56C158.253 94.296 159.549 94.104 160.557 94.104C162.333 94.104 163.077 94.704 163.077 95.448C163.077 96.288 162.141 96.696 161.037 96.696C159.909 96.696 159.189 96.288 158.997 95.52H154.797C155.301 98.28 157.821 99.936 161.061 99.936C164.325 99.936 167.037 98.256 167.037 95.688C167.037 93.768 165.573 92.448 163.245 92.064ZM159.045 86.928C159.045 86.136 159.741 85.608 160.797 85.608C161.853 85.608 162.549 86.136 162.549 86.928C162.549 87.72 161.853 88.248 160.797 88.248C159.741 88.248 159.045 87.72 159.045 86.928ZM27.856 109.368C26.08 109.368 24.688 110.136 23.8 111.48V104.952H19.96V121.752H23.8V120.072C24.688 121.368 26.056 122.136 27.808 122.136C31.024 122.136 33.376 119.592 33.376 115.752C33.376 111.912 31.048 109.368 27.856 109.368ZM26.608 118.896C24.928 118.896 23.8 117.648 23.8 115.752C23.8 113.856 24.928 112.608 26.608 112.608C28.288 112.608 29.416 113.856 29.416 115.752C29.416 117.648 28.288 118.896 26.608 118.896ZM41.5808 109.752L39.3248 117.72L36.7808 109.752H32.7008L37.5968 122.352C37.1888 123.072 36.5168 123.72 35.3408 123.72C34.8848 123.72 34.3568 123.624 33.7088 123.384V126.6C34.4528 126.864 35.1728 126.936 35.7728 126.936C39.8288 126.936 40.8848 123.648 41.2448 122.616L45.6128 109.752H41.5808ZM64.0799 121.752H68.2319L61.7519 104.952H56.8319L50.3519 121.752H54.6719L55.7519 118.824H62.9999L64.0799 121.752ZM56.9519 115.584L59.3759 109.08L61.7999 115.584H56.9519ZM70.8931 108.408C72.1171 108.408 73.0531 107.472 73.0531 106.248C73.0531 105.024 72.1171 104.088 70.8931 104.088C69.6691 104.088 68.7331 105.024 68.7331 106.248C68.7331 107.472 69.6691 108.408 70.8931 108.408ZM68.9491 121.752H72.7891V109.752H68.9491V121.752Z" fill="#391952"/>
<defs>
<clipPath id="clip0_309_8145">
<rect width="14" height="14" fill="white" transform="translate(155 17.752)"/>
</clipPath>
</defs>
</svg>
