<svg width="42" height="43" viewBox="0 0 42 43" fill="none" xmlns="http://www.w3.org/2000/svg">
<g clip-path="url(#clip0_507_309)">
<path d="M41.6015 35.0268L35.6998 26.435V25.252H37.7998C38.9576 25.252 39.8998 24.3098 39.8998 23.152V18.952C39.8998 17.7942 38.9576 16.852 37.7998 16.852H32.8998V9.85195C32.8998 9.28355 32.6786 8.75575 32.2621 8.35045L32.1725 8.26785L25.3832 1.47925L25.2887 1.37705C24.896 0.973153 24.3682 0.751953 23.7998 0.751953H11.1998C10.042 0.751953 9.09977 1.69415 9.09977 2.85195V16.852H4.19977C3.04197 16.852 2.09977 17.7942 2.09977 18.952V23.152C2.09977 24.3098 3.04197 25.252 4.19977 25.252H6.29977V26.435L0.398069 35.0268C0.0816692 35.4874 -0.0422308 36.0362 0.0221692 36.5709H-0.000930786V40.652C-0.000930786 41.8098 0.941269 42.752 2.09907 42.752H39.8991C41.0569 42.752 41.9991 41.8098 41.9991 40.652V36.5709H41.976C42.0411 36.0362 41.9165 35.4874 41.6001 35.0268H41.6015ZM34.2998 25.952H7.69977V22.452C7.69977 22.0656 8.01337 21.752 8.39977 21.752H33.5998C33.9862 21.752 34.2998 22.0656 34.2998 22.452V25.952ZM25.8998 3.97475L29.677 7.75195H26.5998C26.2134 7.75195 25.8998 7.43835 25.8998 7.05195V3.97475ZM10.4998 2.85195C10.4998 2.46555 10.8134 2.15195 11.1998 2.15195H23.7998C23.9867 2.15195 24.1596 2.22405 24.273 2.34025L24.3416 2.41445C24.4452 2.54045 24.4998 2.69165 24.4998 2.85265V7.05265C24.4998 8.21045 25.442 9.15265 26.5998 9.15265H30.7998C30.9608 9.15265 31.112 9.20795 31.238 9.31155L31.2989 9.36755C31.4284 9.49355 31.4998 9.66645 31.4998 9.85265V16.8527H10.4998V2.85195ZM4.19977 23.852C3.81337 23.852 3.49977 23.5384 3.49977 23.152V18.952C3.49977 18.5656 3.81337 18.252 4.19977 18.252H37.7998C38.1862 18.252 38.4998 18.5656 38.4998 18.952V23.152C38.4998 23.5384 38.1862 23.852 37.7998 23.852H35.6998V22.452C35.6998 21.2942 34.7576 20.352 33.5998 20.352H8.39977C7.24197 20.352 6.29977 21.2942 6.29977 22.452V23.852H4.19977ZM1.55237 35.8199L7.36867 27.352H34.6316L40.4479 35.8199C40.6299 36.0852 40.6495 36.4135 40.4997 36.6977C40.3499 36.9826 40.0685 37.152 39.7472 37.152H2.25307C1.93177 37.152 1.65037 36.9826 1.50057 36.6977C1.35077 36.4135 1.37037 36.0852 1.55237 35.8199ZM39.8998 41.352H2.09977C1.71337 41.352 1.39977 41.0384 1.39977 40.652V38.3819C1.66577 38.4911 1.95417 38.552 2.25307 38.552H39.7465C40.0454 38.552 40.3338 38.4911 40.5998 38.3819V40.652C40.5998 41.0384 40.2862 41.352 39.8998 41.352Z" fill="#391952"/>
<path d="M9.80001 30.152H11.2C11.5871 30.152 11.9 29.8391 11.9 29.452C11.9 29.0649 11.5871 28.752 11.2 28.752H9.80001C9.41291 28.752 9.10001 29.0649 9.10001 29.452C9.10001 29.8391 9.41291 30.152 9.80001 30.152Z" fill="#391952"/>
<path d="M14 30.152H15.4C15.7871 30.152 16.1 29.8391 16.1 29.452C16.1 29.0649 15.7871 28.752 15.4 28.752H14C13.6129 28.752 13.3 29.0649 13.3 29.452C13.3 29.8391 13.6129 30.152 14 30.152Z" fill="#391952"/>
<path d="M18.2 30.152H19.6C19.9871 30.152 20.3 29.8391 20.3 29.452C20.3 29.0649 19.9871 28.752 19.6 28.752H18.2C17.8129 28.752 17.5 29.0649 17.5 29.452C17.5 29.8391 17.8129 30.152 18.2 30.152Z" fill="#391952"/>
<path d="M22.4 30.152H23.8C24.1871 30.152 24.5 29.8391 24.5 29.452C24.5 29.0649 24.1871 28.752 23.8 28.752H22.4C22.0129 28.752 21.7 29.0649 21.7 29.452C21.7 29.8391 22.0129 30.152 22.4 30.152Z" fill="#391952"/>
<path d="M26.6 30.152H28C28.3871 30.152 28.7 29.8391 28.7 29.452C28.7 29.0649 28.3871 28.752 28 28.752H26.6C26.2129 28.752 25.9 29.0649 25.9 29.452C25.9 29.8391 26.2129 30.152 26.6 30.152Z" fill="#391952"/>
<path d="M30.8 30.152H32.2C32.5871 30.152 32.9 29.8391 32.9 29.452C32.9 29.0649 32.5871 28.752 32.2 28.752H30.8C30.4129 28.752 30.1 29.0649 30.1 29.452C30.1 29.8391 30.4129 30.152 30.8 30.152Z" fill="#391952"/>
<path d="M7.7 32.952H9.1C9.4871 32.952 9.8 32.6391 9.8 32.252C9.8 31.8649 9.4871 31.552 9.1 31.552H7.7C7.3129 31.552 7 31.8649 7 32.252C7 32.6391 7.3129 32.952 7.7 32.952Z" fill="#391952"/>
<path d="M11.2 32.252C11.2 32.6391 11.5129 32.952 11.9 32.952H13.3C13.6871 32.952 14 32.6391 14 32.252C14 31.8649 13.6871 31.552 13.3 31.552H11.9C11.5129 31.552 11.2 31.8649 11.2 32.252Z" fill="#391952"/>
<path d="M15.4 32.252C15.4 32.6391 15.7129 32.952 16.1 32.952H17.5C17.8871 32.952 18.2 32.6391 18.2 32.252C18.2 31.8649 17.8871 31.552 17.5 31.552H16.1C15.7129 31.552 15.4 31.8649 15.4 32.252Z" fill="#391952"/>
<path d="M19.6 32.252C19.6 32.6391 19.9129 32.952 20.3 32.952H21.7C22.0871 32.952 22.4 32.6391 22.4 32.252C22.4 31.8649 22.0871 31.552 21.7 31.552H20.3C19.9129 31.552 19.6 31.8649 19.6 32.252Z" fill="#391952"/>
<path d="M23.8 32.252C23.8 32.6391 24.1129 32.952 24.5 32.952H25.9C26.2871 32.952 26.6 32.6391 26.6 32.252C26.6 31.8649 26.2871 31.552 25.9 31.552H24.5C24.1129 31.552 23.8 31.8649 23.8 32.252Z" fill="#391952"/>
<path d="M28 32.252C28 32.6391 28.3129 32.952 28.7 32.952H30.1C30.4871 32.952 30.8 32.6391 30.8 32.252C30.8 31.8649 30.4871 31.552 30.1 31.552H28.7C28.3129 31.552 28 31.8649 28 32.252Z" fill="#391952"/>
<path d="M32.2 32.252C32.2 32.6391 32.5129 32.952 32.9 32.952H34.3C34.6871 32.952 35 32.6391 35 32.252C35 31.8649 34.6871 31.552 34.3 31.552H32.9C32.5129 31.552 32.2 31.8649 32.2 32.252Z" fill="#391952"/>
<path d="M5.59999 35.7521H6.99999C7.38709 35.7521 7.69999 35.4392 7.69999 35.0521C7.69999 34.665 7.38709 34.3521 6.99999 34.3521H5.59999C5.21289 34.3521 4.89999 34.665 4.89999 35.0521C4.89999 35.4392 5.21289 35.7521 5.59999 35.7521Z" fill="#391952"/>
<path d="M11.2 34.3521H9.80001C9.41291 34.3521 9.10001 34.665 9.10001 35.0521C9.10001 35.4392 9.41291 35.7521 9.80001 35.7521H11.2C11.5871 35.7521 11.9 35.4392 11.9 35.0521C11.9 34.665 11.5871 34.3521 11.2 34.3521Z" fill="#391952"/>
<path d="M15.4 34.3521H14C13.6129 34.3521 13.3 34.665 13.3 35.0521C13.3 35.4392 13.6129 35.7521 14 35.7521H15.4C15.7871 35.7521 16.1 35.4392 16.1 35.0521C16.1 34.665 15.7871 34.3521 15.4 34.3521Z" fill="#391952"/>
<path d="M19.6 34.3521H18.2C17.8129 34.3521 17.5 34.665 17.5 35.0521C17.5 35.4392 17.8129 35.7521 18.2 35.7521H19.6C19.9871 35.7521 20.3 35.4392 20.3 35.0521C20.3 34.665 19.9871 34.3521 19.6 34.3521Z" fill="#391952"/>
<path d="M23.8 34.3521H22.4C22.0129 34.3521 21.7 34.665 21.7 35.0521C21.7 35.4392 22.0129 35.7521 22.4 35.7521H23.8C24.1871 35.7521 24.5 35.4392 24.5 35.0521C24.5 34.665 24.1871 34.3521 23.8 34.3521Z" fill="#391952"/>
<path d="M28 34.3521H26.6C26.2129 34.3521 25.9 34.665 25.9 35.0521C25.9 35.4392 26.2129 35.7521 26.6 35.7521H28C28.3871 35.7521 28.7 35.4392 28.7 35.0521C28.7 34.665 28.3871 34.3521 28 34.3521Z" fill="#391952"/>
<path d="M32.2 34.3521H30.8C30.4129 34.3521 30.1 34.665 30.1 35.0521C30.1 35.4392 30.4129 35.7521 30.8 35.7521H32.2C32.5871 35.7521 32.9 35.4392 32.9 35.0521C32.9 34.665 32.5871 34.3521 32.2 34.3521Z" fill="#391952"/>
<path d="M34.3 35.0521C34.3 35.4392 34.6129 35.7521 35 35.7521H36.4C36.7871 35.7521 37.1 35.4392 37.1 35.0521C37.1 34.665 36.7871 34.3521 36.4 34.3521H35C34.6129 34.3521 34.3 34.665 34.3 35.0521Z" fill="#391952"/>
<path d="M15.6646 5.731C15.5638 5.2725 15.1676 4.9519 14.7 4.9519C14.2324 4.9519 13.8362 5.2725 13.7354 5.7282L11.9161 13.8993C11.8328 14.2773 12.0701 14.6511 12.4474 14.7351C12.8247 14.8156 13.1985 14.5818 13.2832 14.2038L13.7844 11.9512H15.6149L16.1161 14.2038C16.1889 14.53 16.4787 14.7512 16.7993 14.7512C16.8497 14.7512 16.9015 14.7456 16.9526 14.7351C17.3299 14.6511 17.5672 14.2773 17.4839 13.8993L15.6646 5.731ZM14.0966 10.5519L14.7 7.8401L15.3034 10.5519H14.0966Z" fill="#391952"/>
<path d="M22.4 6.3519C22.7871 6.3519 23.1 6.039 23.1 5.6519C23.1 5.2648 22.7871 4.9519 22.4 4.9519H19.6C19.2129 4.9519 18.9 5.2648 18.9 5.6519C18.9 6.039 19.2129 6.3519 19.6 6.3519H20.3V13.3519H19.6C19.2129 13.3519 18.9 13.6648 18.9 14.0519C18.9 14.439 19.2129 14.7519 19.6 14.7519H22.4C22.7871 14.7519 23.1 14.439 23.1 14.0519C23.1 13.6648 22.7871 13.3519 22.4 13.3519H21.7V6.3519H22.4Z" fill="#391952"/>
</g>
<defs>
<clipPath id="clip0_507_309">
<rect width="42" height="42" fill="white" transform="translate(0 0.751953)"/>
</clipPath>
</defs>
</svg>
