<svg width="16" height="15" viewBox="0 0 16 15" fill="none" xmlns="http://www.w3.org/2000/svg">
<path d="M8.29289 1.04485C8.68342 0.654322 9.31658 0.654322 9.70711 1.04485L15.7071 7.04485C15.8946 7.23238 16 7.48674 16 7.75195C16 8.01717 15.8946 8.27152 15.7071 8.45906L9.70711 14.4591C9.31658 14.8496 8.68342 14.8496 8.29289 14.4591C7.90237 14.0685 7.90237 13.4354 8.29289 13.0448L12.5858 8.75195L1 8.75196C0.447715 8.75196 0 8.30424 0 7.75195C0 7.19967 0.447715 6.75195 1 6.75195L12.5858 6.75195L8.29289 2.45906C7.90237 2.06854 7.90237 1.43537 8.29289 1.04485Z" fill="white"/>
</svg>
