<svg width="124" height="121" viewBox="0 0 124 121" fill="none" xmlns="http://www.w3.org/2000/svg">
<g style="mix-blend-mode:multiply" opacity="0.2">
<path d="M109.273 14.5612L28.2639 5.75379C26.857 5.6011 25.5924 6.62051 25.4401 8.03104L14.508 109.099C14.3557 110.509 15.3725 111.777 16.7794 111.93L97.7882 120.737C99.1951 120.89 100.46 119.87 100.612 118.46L111.545 17.3922C111.697 15.9817 110.68 14.7138 109.273 14.5612H109.273Z" fill="#003889"/>
</g>
<path d="M104.637 9.20458L97.5566 110.616C97.458 112.031 96.2327 113.099 94.8214 113L13.5368 107.296C12.1255 107.197 11.0606 105.969 11.1592 104.554L18.2394 3.14194C18.338 1.72703 19.5633 0.659428 20.9746 0.758303L102.259 6.46237C103.671 6.56125 104.735 7.78967 104.637 9.20458Z" fill="white"/>
<path d="M30.3181 28.6972C31.2944 28.3236 31.8162 27.6634 31.8824 26.7147C31.9017 26.4388 31.8749 26.1741 31.8018 25.92C31.7288 25.6659 31.6133 25.4306 31.4567 25.2147C31.2987 24.9976 31.1127 24.8136 30.898 24.6647C30.6483 24.4863 30.3593 24.358 30.031 24.2798C29.7046 24.1997 29.3157 24.144 28.8638 24.1127L25.8021 23.8981C25.3926 23.8693 25.0912 23.9406 24.8964 24.1102C24.6998 24.281 24.5887 24.5752 24.5594 24.9938L24.0619 32.1153C24.0332 32.5258 24.1012 32.8306 24.266 33.0296C24.4308 33.2286 24.7223 33.3444 25.1398 33.3738L28.028 33.5765C28.5261 33.6116 28.9643 33.6166 29.3419 33.5934C29.7195 33.5703 30.0553 33.5083 30.3518 33.4082C30.8262 33.238 31.2138 32.9495 31.5141 32.544C31.8131 32.1385 31.9822 31.671 32.0191 31.1416C32.099 29.9951 31.5316 29.1803 30.3175 28.6972H30.3181ZM26.455 25.3924L28.0093 25.5013C28.7052 25.5501 29.2177 25.6647 29.5454 25.8455C29.8743 26.0276 30.0216 26.3568 29.9886 26.8349C29.973 27.0583 29.9049 27.2585 29.7851 27.4306C29.629 27.6759 29.4193 27.8343 29.1515 27.9069C28.8856 27.9795 28.5136 27.9989 28.0367 27.9651L26.2834 27.8418L26.4544 25.3918L26.455 25.3924ZM28.0517 32.1291L25.995 31.9845L26.1879 29.2191L28.1797 29.3587C28.8457 29.4056 29.3394 29.5483 29.659 29.7867C29.9798 30.0252 30.124 30.3837 30.0903 30.8625C30.0248 31.798 29.3444 32.2192 28.0517 32.1284V32.1291Z" fill="#3B82F4"/>
<path d="M40.0524 33.0618C39.8976 32.9004 39.666 32.8071 39.3552 32.7852L35.4746 32.513L35.9558 25.6168C35.9833 25.2251 35.9147 24.9272 35.7486 24.7219C35.5838 24.5186 35.3579 24.4059 35.0701 24.3859C34.7861 24.3659 34.5508 24.4478 34.3635 24.6293C34.175 24.8108 34.0683 25.0949 34.0415 25.4829L33.5321 32.7796C33.5034 33.1945 33.5727 33.4993 33.7431 33.6976C33.9123 33.896 34.205 34.0099 34.6226 34.0393L39.2441 34.3635C39.5587 34.3854 39.8027 34.3303 39.975 34.197C40.1485 34.0643 40.244 33.8804 40.2603 33.6482C40.2759 33.4204 40.206 33.2252 40.0518 33.0618H40.0524Z" fill="#3B82F4"/>
<path d="M49.5963 27.7148C49.2861 26.9551 48.7936 26.35 48.1182 25.9032C47.4447 25.4551 46.617 25.196 45.6358 25.1272C44.9142 25.0765 44.2613 25.1447 43.6783 25.3312C43.0953 25.5177 42.591 25.8093 42.1659 26.2092C41.7408 26.6072 41.4025 27.104 41.1528 27.6967C40.9013 28.2893 40.7502 28.9495 40.6997 29.6785C40.6504 30.3888 40.7041 31.0584 40.8607 31.6836C41.0186 32.3087 41.2771 32.8532 41.6372 33.3169C41.998 33.7787 42.463 34.1498 43.0304 34.4302C43.5984 34.7105 44.252 34.877 44.9916 34.9289C45.7357 34.9809 46.4029 34.9114 46.9953 34.718C47.5876 34.5265 48.0963 34.2237 48.5227 33.8125C48.9484 33.4001 49.2811 32.9014 49.5208 32.3169C49.7604 31.7324 49.9053 31.0741 49.9564 30.3406C50.0257 29.35 49.9065 28.4739 49.5963 27.7142V27.7148ZM47.5215 32.0603C47.2431 32.5553 46.8892 32.912 46.4622 33.1291C46.0346 33.345 45.5752 33.4364 45.0859 33.4026C44.7032 33.3757 44.3568 33.2806 44.0466 33.1148C43.7364 32.9508 43.4673 32.7155 43.2401 32.4126C43.0129 32.1079 42.8475 31.7336 42.7427 31.29C42.6378 30.8444 42.6041 30.3531 42.6415 29.815C42.679 29.2799 42.7801 28.8037 42.9455 28.3844C43.1109 27.9651 43.3194 27.626 43.5728 27.3663C43.8263 27.1065 44.1209 26.9169 44.4554 26.7955C44.79 26.6741 45.1483 26.6266 45.5309 26.6535C46.069 26.691 46.5352 26.855 46.9322 27.1441C47.3292 27.4351 47.6213 27.8412 47.8086 28.3663C47.9977 28.89 48.067 29.4996 48.0189 30.1929C47.9665 30.9433 47.8011 31.5659 47.5227 32.0609L47.5215 32.0603Z" fill="#3B82F4"/>
<path d="M60.0446 31.211C59.9416 31.0389 59.7993 30.9237 59.6177 30.8624C59.436 30.8029 59.2132 30.7629 58.9466 30.7441L56.7745 30.5914C56.5117 30.5733 56.2995 30.6277 56.1378 30.7541C55.9755 30.8824 55.8875 31.0508 55.8725 31.2617C55.8544 31.5207 55.9337 31.7097 56.1078 31.8299C56.2826 31.95 56.5485 32.0226 56.9055 32.0476L58.3892 32.1515L58.2819 33.6897C57.8662 33.8781 57.4604 34.0164 57.0628 34.1046C56.6665 34.1935 56.2464 34.2223 55.8045 34.191C54.8925 34.1271 54.2034 33.7786 53.7359 33.144C53.2696 32.5082 53.0736 31.6359 53.1517 30.5232C53.1872 30.0107 53.2865 29.5489 53.4457 29.1346C53.6067 28.7222 53.8202 28.3786 54.0879 28.1058C54.3551 27.8317 54.6684 27.6302 55.028 27.5019C55.3875 27.3736 55.7876 27.3248 56.2295 27.3561C56.6602 27.3861 57.0085 27.4763 57.2763 27.6246C57.5453 27.7729 57.7544 27.9481 57.9049 28.1496C58.054 28.3505 58.2351 28.6446 58.4448 29.032C58.5228 29.154 58.6239 29.2522 58.745 29.3261C58.868 29.3987 58.9978 29.4406 59.1351 29.45C59.3848 29.4675 59.6039 29.3974 59.7955 29.2404C59.9853 29.0814 60.0883 28.8824 60.1058 28.6408C60.1214 28.4174 60.0614 28.1559 59.9279 27.8561C59.793 27.5564 59.5814 27.2672 59.2949 26.9869C59.0084 26.7065 58.6252 26.465 58.1471 26.261C57.6689 26.0551 57.1115 25.9312 56.4767 25.8861C55.7033 25.8317 55.0024 25.8961 54.3763 26.0801C53.7509 26.2635 53.2097 26.5526 52.754 26.9506C52.2996 27.3467 51.9413 27.8436 51.6786 28.4406C51.417 29.0363 51.2597 29.7028 51.2085 30.44C51.1561 31.1903 51.2217 31.8756 51.4052 32.5001C51.5887 33.1228 51.8758 33.6622 52.2678 34.119C52.6585 34.5746 53.1454 34.9357 53.7272 35.201C54.3083 35.4682 54.9631 35.6259 55.6896 35.6772C56.3119 35.721 56.8931 35.6904 57.4324 35.5846C57.9704 35.4801 58.5365 35.2924 59.1295 35.0226C59.3349 34.9288 59.5047 34.8274 59.6401 34.7198C59.7737 34.6128 59.8704 34.4882 59.9285 34.3474C59.9853 34.2066 60.0227 34.0158 60.0396 33.7736L60.1663 31.9582C60.1894 31.6296 60.1482 31.3812 60.0471 31.2091L60.0446 31.211Z" fill="#3B82F4"/>
<path d="M63.7899 40.8892L23.6495 38.0751L22.0504 61.0012L62.1909 63.8153L63.7899 40.8892Z" fill="#E4ECF9"/>
<path d="M30.2707 56.4325L37.183 47.9831L42.1684 53.7647L49.3628 44.5225L55.1559 58.1791L30.2707 56.4325Z" fill="white"/>
<path d="M76.2829 41.7649L66.2604 41.0623L65.7422 48.4923L75.7647 49.1949L76.2829 41.7649Z" fill="#E4ECF9"/>
<path d="M93.6373 46.0858L79.1923 45.072C78.5943 45.03 78.1443 44.51 78.1861 43.9111C78.2279 43.3116 78.7466 42.8604 79.344 42.9024L93.789 43.9161C94.387 43.9581 94.837 44.4781 94.7952 45.077C94.7534 45.6765 94.2347 46.1277 93.6373 46.0858Z" fill="#E4ECF9"/>
<path d="M93.397 49.5291L78.952 48.5153C78.354 48.4734 77.904 47.9534 77.9458 47.3545C77.9876 46.755 78.5063 46.3038 79.1037 46.3457L93.5487 47.3595C94.1466 47.4014 94.5967 47.9215 94.5549 48.5203C94.5131 49.1198 93.9943 49.571 93.397 49.5291Z" fill="#E4ECF9"/>
<path d="M75.5013 52.9722L65.4788 52.2695L64.9606 59.6995L74.9831 60.4022L75.5013 52.9722Z" fill="#E4ECF9"/>
<path d="M92.8552 57.293L78.4102 56.2792C77.8122 56.2373 77.3621 55.7173 77.404 55.1184C77.4458 54.5189 77.9645 54.0677 78.5618 54.1096L93.0069 55.1234C93.6048 55.1653 94.0549 55.6854 94.0131 56.2843C93.9712 56.8838 93.4525 57.335 92.8552 57.293Z" fill="#E4ECF9"/>
<path d="M92.6149 60.7364L78.1698 59.7226C77.5719 59.6807 77.1218 59.1606 77.1636 58.5618C77.2055 57.9623 77.7242 57.5111 78.3215 57.553L92.7665 58.5668C93.3645 58.6087 93.8146 59.1287 93.7727 59.7276C93.7309 60.3271 93.2122 60.7783 92.6149 60.7364Z" fill="#E4ECF9"/>
<path d="M74.7197 64.179L64.6972 63.4763L64.179 70.9063L74.2015 71.609L74.7197 64.179Z" fill="#E4ECF9"/>
<path d="M92.0724 68.4998L77.6274 67.486C77.0295 67.4441 76.5794 66.9241 76.6212 66.3252C76.663 65.7257 77.1818 65.2745 77.7791 65.3164L92.2241 66.3302C92.8221 66.3721 93.2721 66.8922 93.2303 67.491C93.1885 68.0905 92.6698 68.5417 92.0724 68.4998Z" fill="#E4ECF9"/>
<path d="M91.8321 71.9427L77.3871 70.9289C76.7891 70.887 76.3391 70.3669 76.3809 69.7681C76.4227 69.1686 76.9414 68.7174 77.5388 68.7593L91.9838 69.7731C92.5818 69.815 93.0318 70.335 92.99 70.9339C92.9482 71.5334 92.4295 71.9846 91.8321 71.9427Z" fill="#E4ECF9"/>
<path d="M73.9376 75.3845L63.9151 74.6819L63.3969 82.1119L73.4194 82.8145L73.9376 75.3845Z" fill="#E4ECF9"/>
<path d="M91.2903 79.7055L76.8453 78.6917C76.2473 78.6498 75.7973 78.1298 75.8391 77.5309C75.8809 76.9314 76.3996 76.4802 76.997 76.5221L91.442 77.5359C92.04 77.5778 92.49 78.0978 92.4482 78.6967C92.4064 79.2962 91.8877 79.7474 91.2903 79.7055Z" fill="#E4ECF9"/>
<path d="M91.05 83.1482L76.605 82.1345C76.007 82.0925 75.557 81.5725 75.5988 80.9736C75.6406 80.3741 76.1593 79.9229 76.7567 79.9649L91.2017 80.9786C91.7997 81.0206 92.2497 81.5406 92.2079 82.1395C92.1661 82.739 91.6474 83.1902 91.05 83.1482Z" fill="#E4ECF9"/>
<path d="M73.1566 86.5906L63.1341 85.8879L62.6159 93.3179L72.6384 94.0206L73.1566 86.5906Z" fill="#E4ECF9"/>
<path d="M90.5076 90.9114L76.0626 89.8977C75.4646 89.8557 75.0146 89.3357 75.0564 88.7368C75.0982 88.1373 75.6169 87.6861 76.2143 87.728L90.6593 88.7418C91.2573 88.7838 91.7073 89.3038 91.6655 89.9027C91.6236 90.5022 91.1049 90.9534 90.5076 90.9114Z" fill="#E4ECF9"/>
<path d="M90.2673 94.3553L75.8223 93.3415C75.2243 93.2996 74.7743 92.7795 74.8161 92.1807C74.8579 91.5812 75.3766 91.13 75.974 91.1719L90.419 92.1857C91.0169 92.2276 91.467 92.7476 91.4252 93.3465C91.3833 93.946 90.8646 94.3972 90.2673 94.3553Z" fill="#E4ECF9"/>
<path d="M72.3744 97.798L62.3519 97.0953L61.8337 104.525L71.8562 105.228L72.3744 97.798Z" fill="#E4ECF9"/>
<path d="M89.7255 102.118L75.2805 101.105C74.6825 101.063 74.2324 100.543 74.2743 99.9438C74.3161 99.3443 74.8348 98.8931 75.4321 98.9351L89.8772 99.9488C90.4751 99.9908 90.9252 100.511 90.8834 101.11C90.8415 101.709 90.3228 102.16 89.7255 102.118Z" fill="#E4ECF9"/>
<path d="M89.4852 105.562L75.0401 104.548C74.4422 104.506 73.9921 103.986 74.0339 103.387C74.0758 102.788 74.5945 102.337 75.1918 102.378L89.6368 103.392C90.2348 103.434 90.6849 103.954 90.643 104.553C90.6012 105.153 90.0825 105.604 89.4852 105.562Z" fill="#E4ECF9"/>
<path d="M45.8755 69.1919L22.7679 67.5705C22.1181 67.5248 21.6288 66.9597 21.6737 66.3089C21.7193 65.6574 22.2829 65.1668 22.9321 65.2119L46.0396 66.8333C46.6894 66.879 47.1788 67.444 47.1338 68.0949C47.0883 68.7463 46.5246 69.2376 45.8755 69.1919Z" fill="#3B82F4"/>
<path d="M60.1925 75.4291L22.4047 72.777C21.7549 72.7313 21.2655 72.1662 21.3105 71.5154C21.356 70.864 21.9197 70.3733 22.5688 70.4184L60.3567 73.0705C61.0065 73.1162 61.4959 73.6813 61.4509 74.3321C61.4053 74.9835 60.8417 75.4742 60.1925 75.4291Z" fill="#E4ECF9"/>
<path d="M59.7899 81.1985L22.0021 78.5464C21.3523 78.5007 20.8629 77.9356 20.9079 77.2848C20.9534 76.6334 21.5171 76.1428 22.1662 76.1878L59.9541 78.8399C60.6039 78.8856 61.0933 79.4507 61.0483 80.1015C61.0028 80.7529 60.4391 81.2436 59.7899 81.1985Z" fill="#E4ECF9"/>
<path d="M59.3867 86.968L21.5988 84.3159C20.9491 84.2703 20.4597 83.7052 20.5046 83.0543C20.5502 82.4029 21.1138 81.9123 21.763 81.9573L59.5509 84.6094C60.2007 84.6551 60.69 85.2202 60.6451 85.871C60.5995 86.5225 60.0359 87.0131 59.3867 86.968Z" fill="#E4ECF9"/>
<path d="M58.9841 92.7377L21.1962 90.0856C20.5464 90.0399 20.0571 89.4748 20.102 88.824C20.1476 88.1726 20.7112 87.6819 21.3604 87.727L59.1483 90.3791C59.7981 90.4248 60.2874 90.9899 60.2425 91.6407C60.1969 92.2921 59.6333 92.7827 58.9841 92.7377Z" fill="#E4ECF9"/>
<path d="M58.5815 98.5076L20.7936 95.8555C20.1438 95.8098 19.6545 95.2447 19.6994 94.5939C19.745 93.9425 20.3086 93.4518 20.9578 93.4969L58.7457 96.149C59.3955 96.1947 59.8848 96.7598 59.8399 97.4106C59.7943 98.062 59.2307 98.5526 58.5815 98.5076Z" fill="#E4ECF9"/>
<path d="M58.1783 104.278L20.3904 101.626C19.7406 101.58 19.2513 101.015 19.2962 100.364C19.3418 99.7125 19.9054 99.2219 20.5546 99.2669L58.3425 101.919C58.9922 101.965 59.4816 102.53 59.4367 103.181C59.3911 103.832 58.8274 104.323 58.1783 104.278Z" fill="#E4ECF9"/>
<g style="mix-blend-mode:multiply" opacity="0.16">
<path d="M95.8463 12.8188L95.4162 7.35693C95.3064 5.96079 94.0886 4.91823 92.696 5.02837L4.67823 11.9922C3.28566 12.1023 2.24576 13.3232 2.35562 14.7193L2.78568 20.1812C2.89554 21.5774 4.11334 22.6199 5.50591 22.5098L93.5237 15.546C94.9162 15.4359 95.9561 14.215 95.8463 12.8188Z" fill="#003889"/>
</g>
<path d="M91.1643 11.9553L3.40928 21.6976C2.02108 21.8515 0.770827 20.8484 0.617276 19.4566L0.0155553 14.011C-0.137996 12.6193 0.862582 11.3658 2.25078 11.2119L90.0058 1.46957C91.394 1.31563 92.6442 2.31877 92.7978 3.71053L93.3995 9.15615C93.553 10.5479 92.5525 11.8014 91.1643 11.9553Z" fill="#B97FE6"/>
<path d="M5.83862 18.1518C4.73755 18.2738 3.7376 17.4709 3.61526 16.3677C3.49354 15.2638 4.29438 14.2613 5.39482 14.1386C6.4959 14.0166 7.49585 14.8195 7.61819 15.9227C7.73991 17.0266 6.93907 18.0291 5.83862 18.1518Z" fill="white"/>
<path d="M11.7516 17.4951C10.6505 17.6171 9.65056 16.8142 9.52822 15.7109C9.4065 14.607 10.2073 13.6045 11.3078 13.4819C12.4089 13.3598 13.4088 14.1627 13.5312 15.266C13.6529 16.3699 12.852 17.3724 11.7516 17.4951Z" fill="#1F3A6F"/>
<path d="M17.8069 16.8221C16.7058 16.9441 15.7058 16.1412 15.5835 15.038C15.4618 13.9341 16.2626 12.9315 17.3631 12.8089C18.4641 12.6869 19.4641 13.4898 19.5858 14.593C19.7075 15.6969 18.9067 16.6994 17.8062 16.8221H17.8069Z" fill="white"/>
<path d="M51.9698 61.6836L55.323 55.3187L49.5505 55.4702L48 55.5108L48.8408 56.8181L51.9698 61.6836Z" fill="white"/>
<path opacity="0.18" d="M51.9699 61.6834L53.0872 59.562L49.5405 56.7365L48 55.5106L48.8408 56.8179L51.9699 61.6834Z" fill="#391952"/>
<path d="M54.2097 57.4388L55.3273 55.3173L123.187 91.2481L122.07 93.3696L54.2097 57.4388Z" fill="#3B82F4"/>
<path d="M53.0922 59.5599L54.2098 57.4384L122.07 93.3692L120.952 95.4907L53.0922 59.5599Z" fill="#3B82F4"/>
<path d="M51.9745 61.681L53.0921 59.5594L120.952 95.4902L119.834 97.6118L51.9745 61.681Z" fill="#172662"/>
</svg>
