<svg width="47" height="52" viewBox="0 0 47 52" fill="none" xmlns="http://www.w3.org/2000/svg">
<path d="M23.5117 0.751957C10.7383 0.751957 0.383667 11.1064 0.383667 23.8798C0.383667 28.9876 2.04077 33.7077 4.84485 37.5344C4.84505 37.5348 7.46986 44.1047 2.45705 51.7243C6.55328 52.1082 12.2408 48.4165 15.8191 45.6958C18.226 46.5444 20.8145 47.0078 23.5117 47.0078C36.2847 47.0078 46.6397 36.6531 46.6397 23.8798C46.6397 11.1064 36.2847 0.751957 23.5117 0.751957Z" fill="#B97FE6"/>
<mask id="mask0_309_8157" style="mask-type:luminance" maskUnits="userSpaceOnUse" x="0" y="0" width="47" height="52">
<path d="M23.5117 0.751957C10.7383 0.751957 0.383667 11.1064 0.383667 23.8798C0.383667 28.9876 2.04077 33.7077 4.84485 37.5344C4.84505 37.5348 7.46986 44.1047 2.45705 51.7243C6.55328 52.1082 12.2408 48.4165 15.8191 45.6958C18.226 46.5444 20.8145 47.0078 23.5117 47.0078C36.2847 47.0078 46.6397 36.6531 46.6397 23.8798C46.6397 11.1064 36.2847 0.751957 23.5117 0.751957Z" fill="white"/>
</mask>
<g mask="url(#mask0_309_8157)">
<path d="M23.5119 13.0109C14.6487 13.0109 7.46387 14.7744 7.46387 27.4361C7.46387 32.415 11.5001 36.4519 16.4797 36.4519H30.5442C35.5231 36.4519 39.5596 32.415 39.5596 27.4361C39.5596 14.7744 32.3749 13.0109 23.5119 13.0109Z" fill="white"/>
<path d="M23.5119 13.0109C14.6487 13.0109 7.46387 14.7744 7.46387 27.4361C7.46387 32.415 11.5001 36.4519 16.4797 36.4519H30.5442C35.5231 36.4519 39.5596 32.415 39.5596 27.4361C39.5596 14.7744 32.3749 13.0109 23.5119 13.0109Z" fill="white"/>
<path d="M32.387 30.3569H14.6367C9.31327 30.3569 8.72113 27.4598 7.73678 23.547C7.56052 24.7146 7.46387 26.0022 7.46387 27.4361C7.46387 32.415 11.5001 36.4519 16.4797 36.4519H30.5442C35.5231 36.4519 39.5596 32.415 39.5596 27.4361C39.5596 26.0022 39.4627 24.7146 39.2871 23.547C38.3027 27.4598 37.7108 30.3569 32.387 30.3569Z" fill="#BDCAFB"/>
<path d="M31.1574 28.8586H16.1625C11.9947 28.8586 10.4192 27.2308 10.4192 24.7787C10.4192 22.3255 12.8344 19.9764 17.4097 19.9764H29.911C34.4858 19.9764 36.9013 22.3255 36.9013 24.7787C36.9013 27.2308 35.3256 28.8586 31.1574 28.8586Z" fill="#391952"/>
<path d="M23.5119 25.1489C28.4877 25.1489 33.09 24.7904 36.8472 24.1822C36.4872 21.9586 34.1135 19.9763 29.9109 19.9763H17.4097C13.1781 19.9763 10.7987 21.9863 10.4643 24.2287C14.1679 24.8086 18.6625 25.1489 23.5119 25.1489Z" fill="#262626"/>
<path d="M18.0666 22.2434C16.8813 22.2434 15.917 23.2075 15.917 24.3926C15.917 25.5783 16.8813 26.5426 18.0666 26.5426C19.2519 26.5426 20.216 25.5783 20.216 24.3926C20.216 23.2075 19.2519 22.2434 18.0666 22.2434ZM18.0666 27.2637C16.4833 27.2637 15.1958 25.9757 15.1958 24.3926C15.1958 22.8099 16.4833 21.5216 18.0666 21.5216C19.6495 21.5216 20.9375 22.8099 20.9375 24.3926C20.9375 25.9757 19.6495 27.2637 18.0666 27.2637Z" fill="white"/>
<path d="M19.4723 24.3925C19.4723 25.1689 18.843 25.7983 18.0666 25.7983C17.29 25.7983 16.6606 25.1689 16.6606 24.3925C16.6606 23.6161 17.29 22.987 18.0666 22.987C18.843 22.987 19.4723 23.6161 19.4723 24.3925Z" fill="#391952"/>
<path d="M18.1623 23.8279C18.1623 24.1534 17.8986 24.4172 17.5733 24.4172C17.2481 24.4172 16.984 24.1534 16.984 23.8279C16.984 23.5025 17.2481 23.239 17.5733 23.239C17.8986 23.239 18.1623 23.5025 18.1623 23.8279Z" fill="white"/>
<path d="M28.9573 22.2434C27.7724 22.2434 26.8079 23.2075 26.8079 24.3926C26.8079 25.5783 27.7724 26.5426 28.9573 26.5426C30.1428 26.5426 31.1063 25.5783 31.1063 24.3926C31.1063 23.2075 30.1428 22.2434 28.9573 22.2434ZM28.9573 27.2637C27.3744 27.2637 26.0866 25.9757 26.0866 24.3926C26.0866 22.8099 27.3744 21.5216 28.9573 21.5216C30.5404 21.5216 31.8281 22.8099 31.8281 24.3926C31.8281 25.9757 30.5404 27.2637 28.9573 27.2637Z" fill="white"/>
<path d="M27.5515 24.3925C27.5515 25.1689 28.1805 25.7983 28.9573 25.7983C29.7337 25.7983 30.3632 25.1689 30.3632 24.3925C30.3632 23.6161 29.7337 22.987 28.9573 22.987C28.1805 22.987 27.5515 23.6161 27.5515 24.3925Z" fill="#391952"/>
<path d="M28.862 23.8279C28.862 24.1534 29.1251 24.4172 29.4508 24.4172C29.7764 24.4172 30.0401 24.1534 30.0401 23.8279C30.0401 23.5025 29.7764 23.239 29.4508 23.239C29.1251 23.239 28.862 23.5025 28.862 23.8279Z" fill="white"/>
<path d="M23.512 33.9138C21.7361 33.9138 20.1256 33.2565 19.3094 32.1982C19.127 31.962 19.1709 31.6219 19.4073 31.44C19.5058 31.3638 19.6223 31.3269 19.7378 31.3269C19.8994 31.3269 20.0592 31.3991 20.1659 31.5372C20.7726 32.3235 22.0858 32.8316 23.512 32.8316C24.9379 32.8316 26.2509 32.3235 26.8576 31.5372C26.9641 31.3991 27.1241 31.3269 27.2859 31.3269C27.4014 31.3269 27.5179 31.3638 27.6166 31.44C27.8528 31.6219 27.8965 31.962 27.7143 32.1982C26.8977 33.2565 25.2878 33.9138 23.512 33.9138Z" fill="#391952"/>
<path d="M23.5119 55.2048C20.4167 55.2048 17.0933 52.0799 16.0883 48.226L15.1206 44.5129C14.1161 40.6581 16.5304 37.5344 20.5138 37.5344H26.5099C30.4931 37.5344 32.9075 40.6581 31.9031 44.5129L30.9354 48.226C29.9308 52.0799 26.607 55.2048 23.5119 55.2048Z" fill="#BDCAFB"/>
<path d="M23.5119 15.3821C27.4239 15.3821 31.0202 15.1924 33.8748 14.8756C31.0784 13.3654 27.4632 13.0113 23.5119 13.0113C19.5609 13.0113 15.9455 13.3654 13.1492 14.8756C16.0036 15.1924 19.5998 15.3821 23.5119 15.3821Z" fill="#EEEFF1"/>
<path d="M27.2859 13.2691C27.2859 13.8069 26.85 14.2427 26.313 14.2427H20.7111C20.1737 14.2427 19.7377 13.8069 19.7377 13.2691C19.7377 12.7318 20.1737 12.2962 20.7111 12.2962H26.313C26.85 12.2962 27.2859 12.7318 27.2859 13.2691Z" fill="#D1D2D4"/>
<path d="M23.8721 12.2961H23.1514V7.76378H23.8721V12.2961Z" fill="#D1D2D4"/>
<path d="M25.3936 7.76391C25.3936 8.80281 24.5512 9.646 23.5119 9.646C22.4726 9.646 21.63 8.80281 21.63 7.76391C21.63 6.72461 22.4726 5.88162 23.5119 5.88162C24.5512 5.88162 25.3936 6.72461 25.3936 7.76391Z" fill="white"/>
<path d="M23.5119 8.93314C24.4291 8.93314 25.1911 8.27644 25.3579 7.40738C25.3802 7.52328 25.3936 7.64199 25.3936 7.76391C25.3936 8.80281 24.5512 9.646 23.5119 9.646C22.4726 9.646 21.63 8.80281 21.63 7.76391C21.63 7.64199 21.6439 7.52328 21.6661 7.40738C21.8326 8.27644 22.5945 8.93314 23.5119 8.93314Z" fill="#EEEFF1"/>
<path d="M20.7111 12.7781H26.313C26.7666 12.7781 27.1444 13.0905 27.2521 13.51C27.2725 13.4326 27.2859 13.3528 27.2859 13.2688C27.2859 12.7314 26.85 12.2959 26.313 12.2959H20.7111C20.1737 12.2959 19.7377 12.7314 19.7377 13.2688C19.7377 13.3528 19.7518 13.4326 19.7716 13.51C19.8793 13.0905 20.2573 12.7781 20.7111 12.7781Z" fill="#EEEFF1"/>
<path d="M32.1742 43.3894C31.5949 43.3894 31.0525 43.0279 30.8498 42.45C30.5943 41.7219 30.9745 40.925 31.6994 40.6645C31.7637 40.6399 34.2325 39.6756 36.7204 36.227C37.174 35.5984 38.0509 35.4564 38.6801 35.91C39.3085 36.3634 39.4505 37.2406 38.9971 37.8695C35.9324 42.1177 32.7721 43.2631 32.639 43.3098C32.4852 43.3637 32.3284 43.3894 32.1742 43.3894Z" fill="white"/>
<path d="M16.7397 38.7697C18.3269 39.2249 20.7696 39.5168 23.5117 39.5168C26.2538 39.5168 28.6966 39.2249 30.2839 38.7697C29.3232 37.9915 28.0317 37.5343 26.5099 37.5343H20.5137C18.9918 37.5343 17.7002 37.9915 16.7397 38.7697Z" fill="white"/>
</g>
</svg>
