<svg width="42" height="43" viewBox="0 0 42 43" fill="none" xmlns="http://www.w3.org/2000/svg">
<g clip-path="url(#clip0_507_244)">
<path d="M41.6376 34.6948L35.7361 28.5691C37.7118 25.6242 38.754 22.1992 38.754 18.6296C38.754 13.5874 36.6072 8.7541 32.8642 5.36908C32.2745 4.83539 31.4489 5.74815 32.0389 6.28168C33.8544 7.92354 35.2654 9.93174 36.2019 12.1422H28.2984C27.5572 7.73913 26.0751 4.21991 24.1759 2.31424C25.9112 2.66459 27.5851 3.28836 29.1247 4.16855C29.8153 4.56337 30.4261 3.495 29.7354 3.10034C27.0481 1.56398 23.9819 0.751953 20.8683 0.751953C16.0909 0.751953 11.5994 2.61152 8.2212 5.98809C4.84291 9.36474 2.98244 13.8542 2.98244 18.6296C2.98244 24.1953 5.52787 29.3508 9.86757 32.7283H2.12578C0.957414 32.7283 0.00683594 33.6788 0.00683594 34.8473V40.6331C0.00683594 41.8015 0.957414 42.752 2.12578 42.752H4.59993C5.39539 42.752 5.39539 41.5215 4.59993 41.5215H2.12578C1.63581 41.5215 1.2373 41.123 1.2373 40.633V34.8472C1.2373 34.3573 1.63581 33.9587 2.12578 33.9587H25.0302C25.5202 33.9587 25.9187 34.3572 25.9187 34.8472V40.633C25.9187 41.1229 25.5202 41.5215 25.0302 41.5215H7.87814C7.08269 41.5215 7.08269 42.752 7.87814 42.752H25.0302C26.1986 42.752 27.1492 41.8015 27.1492 40.633V35.3735C28.8167 34.7488 30.3681 33.8841 31.7781 32.7962L31.7916 38.6763C31.7944 39.9072 33.4077 40.4446 34.1491 39.4636L36.5228 36.3232C36.5408 36.2993 36.5697 36.2873 36.5999 36.292L40.4907 36.8997C41.6872 37.0861 42.4919 35.5814 41.6376 34.6948ZM36.6673 13.3726C37.2278 15.0529 37.5236 16.8267 37.5236 18.6296C37.5236 20.4387 37.2356 22.2077 36.6773 23.8866H28.4781C28.7016 22.2088 28.82 20.4407 28.82 18.6296C28.82 16.7925 28.7023 15.0288 28.4832 13.3726H36.6673ZM24.3763 32.7283H17.3601C16.1446 30.8499 15.2261 28.1912 14.6889 25.117H27.0476C26.5103 28.1913 25.5918 30.85 24.3763 32.7283ZM14.4964 23.8866C14.2676 22.2178 14.1469 20.4478 14.1469 18.6296C14.1469 16.8154 14.2668 15.0465 14.4972 13.3726H27.2392C27.4696 15.0465 27.5895 16.8154 27.5895 18.6296C27.5895 20.4478 27.4688 22.2178 27.24 23.8866H14.4964ZM4.21291 18.6296C4.21291 16.7933 4.51265 15.0259 5.06455 13.3726H13.2532C13.0342 15.0288 12.9165 16.7925 12.9165 18.6296C12.9165 20.4407 13.0349 22.2088 13.2584 23.8866H5.05865C4.50559 22.2176 4.21291 20.4473 4.21291 18.6296ZM25.4898 6.66386C26.1668 8.25675 26.6917 10.1154 27.0474 12.1422H14.6891C15.0448 10.1155 15.5697 8.25675 16.2467 6.66386C17.5112 3.68875 19.1957 1.98242 20.8683 1.98242C22.5409 1.98242 24.2253 3.68875 25.4898 6.66386ZM17.5624 2.31227C15.6622 4.21753 14.1795 7.73765 13.4379 12.1422H5.52984C7.64821 7.15753 12.1305 3.40993 17.5624 2.31227ZM11.9128 32.668C9.00919 30.8136 6.81174 28.172 5.5218 25.117H13.4431C13.9473 28.1 14.7978 30.7359 15.9234 32.7283H11.9911C11.9668 32.7067 11.9411 32.6861 11.9128 32.668ZM27.015 34.1059C26.7968 33.5236 26.3295 33.0623 25.7434 32.8522C26.9038 30.8459 27.7788 28.1618 28.2933 25.1171H36.2129C35.8394 25.9978 35.3881 26.8484 34.8614 27.6612L34.0222 26.7901C33.2311 25.9686 31.7639 26.547 31.7665 27.7025L31.7746 31.2111C30.3504 32.4455 28.7521 33.417 27.015 34.1059ZM40.765 35.6413C40.7381 35.6928 40.7021 35.6872 40.6807 35.6839L36.79 35.0762C36.3113 35.0014 35.8333 35.1949 35.5413 35.5811L33.1676 38.7218C33.0959 38.7752 33.0475 38.7591 33.0222 38.6735L32.9968 27.6996C33.0179 27.6184 33.0644 27.5998 33.136 27.6437L40.7515 35.5486C40.7665 35.5641 40.7915 35.5901 40.765 35.6413Z" fill="#391952"/>
<path d="M8.23145 39.9191L9.52213 35.9407C9.76765 35.184 8.59698 34.8042 8.35171 35.5609L7.57832 37.9448L6.7804 36.0025C6.57565 35.5039 5.84696 35.5039 5.64221 36.0025L4.84446 37.9449L4.07099 35.5609C3.82571 34.8043 2.65513 35.184 2.90057 35.9407L4.19133 39.9191C4.36302 40.4483 5.13337 40.4796 5.34559 39.963L6.21135 37.8555L7.0771 39.963C7.2903 40.4819 8.05844 40.4526 8.23145 39.9191Z" fill="#391952"/>
<path d="M12.1198 40.344C12.3769 40.3538 12.6143 40.2017 12.7124 39.963L13.578 37.8555L14.4438 39.963C14.6544 40.4756 15.4251 40.4521 15.598 39.9191L16.8888 35.9407C17.1343 35.184 15.9637 34.8042 15.7184 35.5609L14.9449 37.9449L14.147 36.0026C13.9422 35.504 13.2136 35.504 13.0088 36.0026L12.211 37.9449L11.4375 35.561C11.1922 34.8044 10.0216 35.1841 10.2671 35.9408L11.5578 39.9192C11.6377 40.1645 11.862 40.3343 12.1198 40.344Z" fill="#391952"/>
<path d="M19.4864 40.344C19.7427 40.3538 19.9808 40.2018 20.0789 39.963L20.9447 37.8555L21.8104 39.963C22.021 40.4756 22.7918 40.4521 22.9647 39.9191L24.2555 35.9407C24.501 35.184 23.3303 34.8042 23.085 35.5609L22.3116 37.9449L21.5136 36.0026C21.3089 35.504 20.5802 35.504 20.3755 36.0026L19.5776 37.9449L18.8041 35.5609C18.5587 34.8044 17.3883 35.184 17.6337 35.9407L18.9245 39.9191C19.0042 40.1645 19.2286 40.3343 19.4864 40.344Z" fill="#391952"/>
</g>
<defs>
<clipPath id="clip0_507_244">
<rect width="42" height="42" fill="white" transform="translate(0 0.751953)"/>
</clipPath>
</defs>
</svg>
