<svg width="306" height="43" viewBox="0 0 306 43" fill="none" xmlns="http://www.w3.org/2000/svg">
<rect x="0.5" y="1.25195" width="305" height="41" rx="8.5" fill="white"/>
<path d="M17.6311 18.3926V17.0701H25.5111V18.3926H22.3343V27.252H20.803V18.3926H17.6311ZM29.3169 27.4061C28.5645 27.4061 27.9165 27.2453 27.373 26.9238C26.8327 26.599 26.4151 26.1433 26.1201 25.5566C25.8285 24.9667 25.6826 24.2756 25.6826 23.4835C25.6826 22.7013 25.8285 22.0119 26.1201 21.4153C26.4151 20.8187 26.8261 20.353 27.3531 20.0183C27.8834 19.6835 28.5032 19.5162 29.2124 19.5162C29.6433 19.5162 30.0609 19.5874 30.4653 19.7299C30.8696 19.8725 31.2326 20.0962 31.5541 20.4011C31.8756 20.706 32.1291 21.1021 32.3147 21.5893C32.5003 22.0732 32.5931 22.6615 32.5931 23.3542V23.8812H26.5228V22.7676H31.1365C31.1365 22.3765 31.0569 22.0301 30.8978 21.7285C30.7387 21.4236 30.515 21.1833 30.2267 21.0076C29.9416 20.832 29.6069 20.7441 29.2224 20.7441C28.8048 20.7441 28.4402 20.8469 28.1286 21.0524C27.8204 21.2546 27.5818 21.5197 27.4127 21.8478C27.247 22.1726 27.1642 22.5256 27.1642 22.9068V23.7768C27.1642 24.2872 27.2536 24.7214 27.4326 25.0794C27.6149 25.4373 27.8685 25.7108 28.1933 25.8997C28.5181 26.0853 28.8976 26.1781 29.3318 26.1781C29.6135 26.1781 29.8704 26.1383 30.1024 26.0588C30.3344 25.9759 30.5349 25.8533 30.7039 25.6909C30.873 25.5285 31.0022 25.3279 31.0917 25.0893L32.4987 25.3429C32.386 25.7572 32.1838 26.1201 31.8921 26.4316C31.6038 26.7399 31.2409 26.9802 30.8034 27.1525C30.3692 27.3216 29.8737 27.4061 29.3169 27.4061ZM35.238 19.6156L36.9234 22.5886L38.6237 19.6156H40.2494L37.868 23.4338L40.2693 27.252H38.6436L36.9234 24.3983L35.2082 27.252H33.5775L35.9539 23.4338L33.6073 19.6156H35.238ZM45.3403 19.6156V20.8088H41.1691V19.6156H45.3403ZM42.2877 17.786H43.7742V25.0098C43.7742 25.2981 43.8173 25.5152 43.9035 25.661C43.9897 25.8036 44.1007 25.9013 44.2366 25.9544C44.3758 26.0041 44.5266 26.0289 44.689 26.0289C44.8083 26.0289 44.9127 26.0207 45.0022 26.0041C45.0917 25.9875 45.1613 25.9743 45.211 25.9643L45.4795 27.1923C45.3933 27.2254 45.2707 27.2586 45.1116 27.2917C44.9525 27.3282 44.7536 27.3481 44.515 27.3514C44.1239 27.358 43.7593 27.2884 43.4213 27.1426C43.0832 26.9967 42.8097 26.7714 42.6009 26.4664C42.3921 26.1615 42.2877 25.7787 42.2877 25.318V17.786Z" fill="#391952"/>
<path d="M76.6 19.0853L72 23.2294L67.4 19.0853L66 20.3465L72 25.752L78 20.3465L76.6 19.0853Z" fill="#7E8794"/>
<rect x="9.5" y="8.25195" width="79" height="27" rx="3.5" stroke="#D0D5DD"/>
<path d="M110.438 21.602C110.805 21.3783 111.115 21.072 111.343 20.7074C111.57 20.3428 111.71 19.93 111.75 19.502C111.757 19.1149 111.688 18.7302 111.546 18.3699C111.404 18.0097 111.193 17.6808 110.924 17.4022C110.655 17.1237 110.334 16.9008 109.979 16.7463C109.624 16.5918 109.242 16.5088 108.855 16.502H103.988V27.002H109.238C109.606 26.998 109.97 26.9216 110.309 26.777C110.647 26.6324 110.955 26.4225 111.212 26.1592C111.47 25.896 111.673 25.5845 111.811 25.2427C111.948 24.9009 112.016 24.5353 112.013 24.167V24.077C112.013 23.5573 111.865 23.0483 111.586 22.6099C111.307 22.1715 110.908 21.8218 110.438 21.602ZM105.488 18.002H108.638C108.957 17.9921 109.272 18.0802 109.54 18.2544C109.808 18.4287 110.017 18.6808 110.138 18.977C110.26 19.3728 110.22 19.8009 110.028 20.1677C109.835 20.5345 109.505 20.8102 109.11 20.9345C108.957 20.9794 108.797 21.0022 108.638 21.002H105.488V18.002ZM108.938 25.502H105.488V22.502H108.938C109.257 22.4921 109.572 22.5802 109.84 22.7544C110.108 22.9287 110.317 23.1808 110.438 23.477C110.56 23.8728 110.52 24.3009 110.328 24.6677C110.135 25.0345 109.805 25.3102 109.41 25.4345C109.257 25.4794 109.097 25.5022 108.938 25.502Z" fill="#7E8794"/>
<rect x="119" y="9.75195" width="24" height="24" rx="4" fill="#F2F4F7"/>
<path d="M135.75 16.752H130.125M132.625 26.752H127M133.25 16.752L129.5 26.752" stroke="#391952" stroke-width="1.5" stroke-linecap="round" stroke-linejoin="round"/>
<path d="M160.25 27.752V29.252H149.75V27.752H160.25ZM158 22.6632C157.975 23.1582 157.828 23.6394 157.572 24.0637C157.316 24.488 156.959 24.8423 156.533 25.0949C156.106 25.3475 155.624 25.4905 155.129 25.5111C154.634 25.5318 154.141 25.4294 153.695 25.2132C153.181 24.9908 152.745 24.6201 152.443 24.1484C152.141 23.6767 151.987 23.1256 152 22.5657V16.5057H150.5V22.6632C150.525 23.3693 150.717 24.0594 151.058 24.6778C151.4 25.2962 151.882 25.8255 152.467 26.2228C153.051 26.62 153.721 26.8742 154.421 26.9646C155.122 27.055 155.834 26.9792 156.5 26.7432C157.386 26.4479 158.154 25.8778 158.694 25.1157C159.233 24.3536 159.516 23.4393 159.5 22.5057V16.5057H158V22.6632ZM158 16.502H159.5H158ZM152 16.502H150.5H152Z" fill="#7E8794"/>
<path d="M170 21.955H188V23.455H183.634C183.871 23.9522 183.991 24.4972 183.984 25.0479C183.998 25.5704 183.886 26.0886 183.657 26.5585C183.428 27.0285 183.089 27.4363 182.669 27.7476C181.658 28.4593 180.438 28.8128 179.203 28.7521C178.3 28.7582 177.406 28.5745 176.579 28.2131C175.824 27.8997 175.169 27.385 174.687 26.7249C174.242 26.0947 174.008 25.3405 174.016 24.5694V24.4561H174.304V24.455H174.645V24.4561H176.02V24.5694C176.004 24.9208 176.074 25.2708 176.223 25.5895C176.371 25.9083 176.595 26.1863 176.874 26.4001C177.552 26.8824 178.372 27.1218 179.202 27.0794C179.936 27.1273 180.664 26.9356 181.279 26.5332C181.507 26.3647 181.69 26.1429 181.812 25.8872C181.935 25.6315 181.992 25.3498 181.98 25.0666C181.996 24.793 181.946 24.5197 181.833 24.2699C181.721 24.0201 181.549 23.8013 181.333 23.6322C181.245 23.5682 181.153 23.509 181.059 23.455H170V21.955ZM183.345 16.8119C182.923 16.1569 182.327 15.6327 181.624 15.2983C180.839 14.9247 179.979 14.7377 179.111 14.7521C177.9 14.7001 176.709 15.0761 175.747 15.8142C175.334 16.133 175.001 16.5435 174.774 17.0133C174.548 17.483 174.433 17.999 174.44 18.5206C174.437 19.0149 174.547 19.5034 174.762 19.9485H177.358C177.275 19.8948 177.173 19.8427 177.106 19.7878C176.902 19.6377 176.737 19.4418 176.624 19.2158C176.51 18.9898 176.452 18.7403 176.453 18.4875C176.438 18.1989 176.492 17.9109 176.612 17.6479C176.732 17.3849 176.914 17.1547 177.141 16.9767C177.717 16.5771 178.411 16.3826 179.111 16.4242C179.872 16.3759 180.623 16.6145 181.217 17.0929C181.465 17.3267 181.659 17.6117 181.787 17.9282C181.914 18.2446 181.97 18.585 181.953 18.9255V19.0389H183.956V18.9255C183.959 18.1769 183.747 17.4432 183.345 16.8119Z" fill="#7E8794"/>
<path d="M204.875 24.752H206.375V25.127H205.625V25.877H206.375V26.252H204.875V27.002H207.125V24.002H204.875V24.752ZM205.625 19.502H206.375V16.502H204.875V17.252H205.625V19.502ZM204.875 21.002H206.225L204.875 22.577V23.252H207.125V22.502H205.775L207.125 20.927V20.252H204.875V21.002ZM208.625 17.252V18.752H219.125V17.252H208.625ZM208.625 26.252H219.125V24.752H208.625V26.252ZM208.625 22.502H219.125V21.002H208.625V22.502Z" fill="#7E8794"/>
<path d="M235.089 19.3817L231 23.0654L226.911 19.3817L225.667 20.5028L231 25.3076L236.333 20.5028L235.089 19.3817Z" fill="#7E8794"/>
<path d="M259.25 25.502H256.25C255.255 25.502 254.302 25.1069 253.598 24.4036C252.895 23.7003 252.5 22.7465 252.5 21.752C252.5 20.7574 252.895 19.8036 253.598 19.1003C254.302 18.397 255.255 18.002 256.25 18.002H259.25V19.502H256.25C255.653 19.502 255.081 19.739 254.659 20.161C254.237 20.5829 254 21.1552 254 21.752C254 22.3487 254.237 22.921 254.659 23.3429C255.081 23.7649 255.653 24.002 256.25 24.002H259.25V25.502ZM263.75 18.002H260.75V19.502H263.75C264.347 19.502 264.919 19.739 265.341 20.161C265.763 20.5829 266 21.1552 266 21.752C266 22.3487 265.763 22.921 265.341 23.3429C264.919 23.7649 264.347 24.002 263.75 24.002H260.75V25.502H263.75C264.745 25.502 265.698 25.1069 266.402 24.4036C267.105 23.7003 267.5 22.7465 267.5 21.752C267.5 20.7574 267.105 19.8036 266.402 19.1003C265.698 18.397 264.745 18.002 263.75 18.002ZM263 21.002H257V22.502H263V21.002Z" fill="#7E8794"/>
<path d="M293 17.252H287.75L286.25 15.752H281C280.175 15.752 279.5 16.427 279.5 17.252V26.252C279.5 27.077 280.175 27.752 281 27.752H293C293.825 27.752 294.5 27.077 294.5 26.252V18.752C294.5 17.927 293.825 17.252 293 17.252ZM293 26.252H281V17.252H285.65L287.15 18.752H293V26.252ZM291.5 24.752L288.65 21.002H288.5L286.325 23.852L284.75 21.827L282.5 24.752H291.5ZM285.5 19.877C285.5 19.277 284.975 18.752 284.375 18.752C283.775 18.752 283.25 19.277 283.25 19.877C283.25 20.477 283.775 21.002 284.375 21.002C284.975 21.002 285.5 20.477 285.5 19.877Z" fill="#7E8794"/>
<rect x="0.5" y="1.25195" width="305" height="41" rx="8.5" stroke="#DADDE4"/>
</svg>
