<svg width="116" height="121" viewBox="0 0 116 121" fill="none" xmlns="http://www.w3.org/2000/svg">
<g clip-path="url(#clip0_309_8739)">
<path d="M13.5755 111.901C9.79663 112.9 5.25085 112.617 0 111.048L0.624659 108.968C7.2614 110.95 12.5762 110.741 16.4226 108.346C19.2428 106.59 20.3803 104.197 21.4806 101.882C22.6573 99.4065 23.8747 96.8468 27.0134 95.3297C31.8092 93.0116 37.1626 95.051 41.461 96.691C44.7239 97.9356 47.5416 99.0111 48.7956 97.7948C49.9495 96.6751 49.4346 94.1555 48.9363 91.7181C48.3745 88.9662 47.7926 86.1207 49.7042 84.674C51.7142 83.1512 54.4072 84.6257 57.8139 86.4934C60.0178 87.7015 62.5154 89.0705 65.2712 89.9111C72.6996 92.1772 81.6597 90.3213 91.9017 84.3959L92.9938 86.2744C82.2055 92.516 72.6651 94.4372 64.6342 91.988C61.6639 91.0817 59.0612 89.6556 56.7656 88.3971C54.2665 87.027 51.9008 85.7356 51.0205 86.4039C50.1995 87.0255 50.6613 89.288 51.0695 91.2848C51.656 94.1534 52.3203 97.4046 50.3139 99.3515C48.0616 101.535 44.4791 100.167 40.6832 98.7196C36.5724 97.1516 31.9164 95.3729 27.9623 97.2843C25.5131 98.4682 24.5555 100.481 23.4474 102.813C22.2702 105.289 20.9359 108.096 17.575 110.189C16.3561 110.947 15.0217 111.518 13.575 111.901H13.5755Z" fill="#C4D7F2"/>
<g style="mix-blend-mode:multiply" opacity="0.18">
<path d="M112.315 79.7189C112.342 79.466 112.33 79.2115 112.275 78.9658C112.246 78.8336 112.204 78.7025 112.152 78.572C111.938 78.0615 111.544 77.6121 110.997 77.3232L104.51 73.907L112.772 24.3059C112.996 22.96 112.022 21.6918 110.598 21.4727L52.8228 12.5902C51.3983 12.3712 50.0614 13.2842 49.8372 14.6301L45.1687 42.6592L42.6026 41.3076C41.9197 40.9467 41.1368 40.9118 40.4565 41.1457C40.3158 41.192 40.1833 41.2506 40.057 41.3189C39.9746 41.3647 39.8952 41.4156 39.8184 41.4696C39.5282 41.6721 39.2772 41.9333 39.0922 42.2495L28.0705 61.0772L17.0503 79.903C16.9653 80.0484 16.8977 80.1986 16.8467 80.3512C16.8457 80.3543 16.8441 80.3574 16.8431 80.3605C16.8421 80.3636 16.8416 80.3672 16.84 80.3703C16.7565 80.6268 16.7204 80.89 16.7287 81.1502C16.7287 81.1568 16.7302 81.163 16.7302 81.1697C16.739 81.3877 16.7792 81.6036 16.8477 81.8108C16.8519 81.8231 16.856 81.8349 16.8601 81.8473C16.8854 81.9203 16.9132 81.9922 16.9457 82.0627C16.9498 82.0714 16.9544 82.0791 16.958 82.0879C16.9874 82.149 17.0194 82.2092 17.0539 82.2683C17.0637 82.2848 17.073 82.3017 17.0828 82.3182C17.1209 82.3799 17.1616 82.4395 17.2054 82.4981C17.2173 82.514 17.2302 82.53 17.2425 82.5459C17.2894 82.6061 17.3384 82.6647 17.3915 82.7207C17.3961 82.7259 17.4013 82.73 17.4059 82.7351C17.459 82.7901 17.5152 82.8426 17.5739 82.8929C17.5853 82.9027 17.5961 82.9125 17.6074 82.9217C17.6703 82.9742 17.7368 83.024 17.8064 83.0713C17.8157 83.0775 17.8249 83.0837 17.8342 83.0898C17.9074 83.1382 17.9832 83.1849 18.0625 83.2266L86.4539 119.243C86.7869 119.419 87.142 119.516 87.4971 119.544C87.7367 119.563 87.9759 119.553 88.2078 119.511C88.2923 119.496 88.3769 119.474 88.4614 119.45C88.4727 119.447 88.4841 119.443 88.4954 119.439C88.533 119.428 88.5717 119.417 88.6083 119.404C88.6083 119.404 88.6083 119.404 88.6088 119.404C88.6413 119.393 88.6722 119.379 88.7041 119.367C88.7191 119.361 88.734 119.355 88.749 119.349C88.7655 119.342 88.782 119.336 88.7985 119.329C88.8036 119.327 88.8088 119.325 88.8139 119.323C88.8149 119.323 88.816 119.322 88.817 119.321C88.8696 119.298 88.9211 119.271 88.9722 119.245C88.9742 119.244 88.9768 119.243 88.9789 119.241C89.135 119.158 89.2819 119.059 89.418 118.945C89.4288 118.936 89.4386 118.927 89.4494 118.918C89.5035 118.871 89.5561 118.821 89.6066 118.769C89.6205 118.755 89.6339 118.741 89.6473 118.727C89.6963 118.674 89.7427 118.619 89.787 118.562C89.7963 118.549 89.8066 118.538 89.8153 118.526C89.8684 118.454 89.9194 118.38 89.9653 118.301L99.9774 101.2L112.007 80.6479C112.064 80.5487 112.111 80.4469 112.153 80.3435C112.236 80.1394 112.289 79.9297 112.311 79.7184L112.315 79.7189Z" fill="#003889"/>
</g>
<path d="M35.334 39.0086C35.1958 39.0651 35.0665 39.1335 34.9438 39.2116C34.564 39.461 34.2413 39.8085 34.0274 40.2419L18.4981 71.7277L13.8827 81.0838C13.6683 81.5146 13.5884 81.9727 13.6224 82.4163C13.6358 82.5665 13.6621 82.7155 13.6987 82.8636C13.8781 83.5669 14.3558 84.1915 15.0609 84.536L17.7523 85.8562L80.9856 116.889L84.0976 118.416L85.1567 118.936C85.7267 119.216 86.3509 119.268 86.9209 119.127C87.0539 119.095 87.1879 119.049 87.3157 118.994C87.863 118.761 88.332 118.338 88.6171 117.761L97.7674 99.2119L108.761 76.9191C109.044 76.3428 109.092 75.7099 108.942 75.1316C108.907 74.9943 108.858 74.8581 108.799 74.7229C108.56 74.1959 108.145 73.7425 107.584 73.4669L37.4852 39.0677C36.7853 38.7227 36.0014 38.7268 35.334 39.0091V39.0086Z" fill="#172662"/>
<path d="M37.5393 87.7542L95.6836 94.1059C97.1175 94.2627 98.407 93.2298 98.5642 91.7996L106.723 17.4864C106.88 16.0562 105.845 14.7699 104.411 14.6131L46.2665 8.26195C44.8327 8.10515 43.5432 9.13797 43.386 10.5682L35.2273 84.8814C35.0701 86.3116 36.1055 87.5979 37.5393 87.7547V87.7542Z" fill="white"/>
<path d="M60.8527 21.9934L87.1904 24.8703C88.2027 24.9809 89.1134 24.2519 89.2247 23.2422C89.3355 22.2325 88.6047 21.3241 87.5924 21.213L61.2547 18.3362C60.2425 18.2256 59.3318 18.9546 59.2205 19.9648C59.1096 20.975 59.8405 21.8829 60.8527 21.994V21.9934Z" fill="#ECF3FE"/>
<path d="M47.8024 46.8969L94.5281 52.0008C95.2492 52.0795 95.8975 51.5602 95.9769 50.841C96.0558 50.1218 95.5352 49.4751 94.8142 49.3959L48.0884 44.2919C47.3674 44.2133 46.719 44.7325 46.6397 45.4517C46.5608 46.171 47.0814 46.8177 47.8024 46.8969Z" fill="#ECF3FE"/>
<path d="M47.1587 52.7617L93.8844 57.8657C94.6054 57.9443 95.2538 57.4251 95.3332 56.7059C95.412 55.9867 94.8915 55.3399 94.1704 55.2608L47.4447 50.1568C46.7237 50.0781 46.0753 50.5974 45.9959 51.3166C45.9171 52.0358 46.4376 52.6826 47.1587 52.7617Z" fill="#ECF3FE"/>
<path d="M46.5149 58.627L93.2407 63.7309C93.9617 63.8096 94.6101 63.2903 94.6894 62.5711C94.7683 61.8519 94.2477 61.2052 93.5267 61.126L46.801 56.022C46.0799 55.9434 45.4316 56.4626 45.3522 57.1818C45.2733 57.9011 45.7939 58.5478 46.5149 58.627Z" fill="#ECF3FE"/>
<path d="M45.8707 64.4918L92.5964 69.5958C93.3175 69.6744 93.9658 69.1552 94.0452 68.436C94.1241 67.7168 93.6035 67.07 92.8825 66.9909L46.1567 61.8869C45.4357 61.8082 44.7873 62.3275 44.708 63.0467C44.6291 63.7659 45.1497 64.4127 45.8707 64.4918Z" fill="#ECF3FE"/>
<path d="M45.227 70.3572L91.9527 75.4611C92.6737 75.5398 93.3221 75.0206 93.4015 74.3013C93.4803 73.5821 92.9598 72.9354 92.2387 72.8562L45.513 67.7523C44.792 67.6736 44.1436 68.1928 44.0642 68.9121C43.9854 69.6313 44.5059 70.278 45.227 70.3572Z" fill="#ECF3FE"/>
<path d="M44.5827 76.2224L91.3084 81.3264C92.0295 81.405 92.6778 80.8858 92.7572 80.1666C92.8361 79.4474 92.3155 78.8006 91.5945 78.7215L44.8688 73.6175C44.1477 73.5388 43.4993 74.0581 43.42 74.7773C43.3411 75.4965 43.8617 76.1433 44.5827 76.2224Z" fill="#ECF3FE"/>
<path d="M43.939 82.0873L90.6647 87.1912C91.3858 87.2699 92.0341 86.7507 92.1135 86.0314C92.1924 85.3122 91.6718 84.6655 90.9508 84.5863L44.225 79.4824C43.504 79.4037 42.8556 79.9229 42.7763 80.6422C42.6974 81.3614 43.218 82.0081 43.939 82.0873Z" fill="#ECF3FE"/>
<path d="M50.7721 38.9217L93.3592 43.5737C93.7504 43.6164 94.1024 43.3347 94.1452 42.9445L95.2311 33.0532C95.2739 32.663 94.9915 32.3119 94.6003 32.2693L52.0132 27.6172C51.622 27.5745 51.27 27.8562 51.2272 28.2464L50.1412 38.1377C50.0985 38.5279 50.3809 38.879 50.7721 38.9217Z" fill="#172662"/>
<g style="mix-blend-mode:multiply" opacity="0.18">
<path d="M108.941 75.1321L44.2776 72.5226L59.7957 88.5475L108.941 75.1321Z" fill="#003889"/>
</g>
<path d="M23.953 60.6649L13.8812 81.0848C13.6693 81.5141 13.5884 81.9732 13.6224 82.4164C13.691 83.2965 14.2095 84.1196 15.0588 84.536L85.1547 118.936C85.7257 119.216 86.3488 119.267 86.9183 119.126C87.6311 118.949 88.2645 118.471 88.615 117.762L98.6869 97.3416L23.953 60.6649Z" fill="#3B82F4"/>
<path d="M61.3315 78.9806L84.0965 118.416L85.1557 118.936C85.7257 119.216 86.3498 119.268 86.9198 119.127C87.0528 119.095 87.1868 119.049 87.3146 118.994C87.862 118.761 88.331 118.338 88.616 117.761L97.7663 99.2118L61.331 78.9811L61.3315 78.9806Z" fill="#391952"/>
<path d="M18.4975 71.7283L13.8822 81.0843C13.6678 81.5151 13.5879 81.9732 13.6219 82.4169C13.6353 82.567 13.6616 82.7161 13.6982 82.8641C13.8775 83.5674 14.3553 84.192 15.0604 84.5365L17.7518 85.8567L61.3315 78.9812L18.4975 71.7283Z" fill="#391952"/>
<path d="M34.0264 40.2429L13.8817 81.0848C13.6698 81.5141 13.5889 81.9732 13.6229 82.4163C13.6353 82.5674 13.6611 82.716 13.6992 82.8625L61.3321 78.9796L35.3355 39.009C35.1974 39.0656 35.068 39.1329 34.9448 39.2116C34.564 39.4594 34.2408 39.8085 34.0264 40.2424V40.2429Z" fill="#3B82F4"/>
<path d="M61.332 78.9801L87.3162 118.994C87.8615 118.76 88.3315 118.338 88.6155 117.761L108.76 76.9196C109.045 76.3433 109.092 75.7109 108.941 75.1326L61.3315 78.9801H61.332Z" fill="#3B82F4"/>
<g style="mix-blend-mode:multiply" opacity="0.18">
<path d="M112.113 116.566C117.291 111.401 117.291 103.026 112.113 97.8612C106.935 92.696 98.5391 92.696 93.3609 97.8612C88.1827 103.026 88.1827 111.401 93.3609 116.566C98.5391 121.731 106.935 121.731 112.113 116.566Z" fill="#003889"/>
</g>
<path d="M109.501 116.183C114.679 111.018 114.679 102.644 109.501 97.4785C104.322 92.3134 95.9269 92.3133 90.7487 97.4785C85.5705 102.644 85.5705 111.018 90.7487 116.183C95.9269 121.348 104.322 121.348 109.501 116.183Z" fill="#B97FE6"/>
<path d="M106.714 104.565L95.7756 101.772C95.3123 101.653 94.8948 102.079 95.0237 102.538L96.0323 106.132L103.565 106.002L96.5456 107.961L95.6081 108.223C95.3004 108.309 95.2206 108.707 95.4705 108.904L97.1919 110.264L98.0676 113.384C98.1964 113.843 98.7747 113.99 99.1092 113.649L107.004 105.597C107.339 105.256 107.178 104.682 106.714 104.564V104.565Z" fill="white"/>
<g style="mix-blend-mode:multiply" opacity="0.18">
<path d="M42.2882 116.036C42.3186 115.97 42.3279 115.908 42.3057 115.856L13.8925 49.2853C12.9808 47.1493 11.0362 45.8614 9.60904 46.5128C8.18191 47.1642 7.88762 49.474 8.91223 51.5587L40.8456 116.523C40.8559 116.544 40.8714 116.562 40.8904 116.578C40.0225 118.627 43.1334 120.752 43.1334 120.752C43.1334 120.752 43.187 119.927 43.554 118.035C43.8035 116.749 42.8958 116.234 42.2882 116.036Z" fill="#003889"/>
</g>
<path d="M42.5366 115.863C42.5366 115.863 44.6652 116.182 44.2153 118.056C43.7648 119.93 43.6751 120.752 43.6751 120.752C43.6751 120.752 40.3215 118.24 41.8084 116.158L42.5371 115.863H42.5366Z" fill="#1F3A6F"/>
<path d="M13.4668 45.1098C12.0123 45.6979 11.616 47.9923 12.5478 50.1197L41.5769 116.426C41.6548 116.603 42.0485 116.613 42.4526 116.45C42.8572 116.287 43.1329 116.006 43.0644 115.825L17.6234 48.0679C16.807 45.8938 14.9212 44.5217 13.4668 45.1098Z" fill="#F4B545"/>
<path d="M29.6572 109.662C29.9303 107.984 28.7877 106.402 27.1049 106.13C25.4222 105.857 23.8367 106.997 23.5635 108.676C23.2904 110.354 24.4331 111.936 26.1158 112.208C27.7985 112.481 29.384 111.341 29.6572 109.662Z" fill="white"/>
<g style="mix-blend-mode:multiply" opacity="0.18">
<path d="M67.0282 13.4785L66.5736 4.92757C66.5174 3.87418 65.616 3.06499 64.56 3.12103L41.3543 4.34818C40.2982 4.40422 39.487 5.30337 39.5432 6.35676L39.9978 14.9077C40.0539 15.9611 40.9554 16.7703 42.0114 16.7143L65.2171 15.4871C66.2731 15.4311 67.0844 14.5319 67.0282 13.4785Z" fill="#003889"/>
</g>
<path d="M63.7245 13.059L40.6564 15.8577C39.6066 15.9852 38.6516 15.2392 38.5243 14.192L37.4878 5.69195C37.36 4.64473 38.1078 3.69211 39.1577 3.56513L62.2252 0.766386C63.2751 0.63889 64.2301 1.38484 64.3574 2.43206L65.3939 10.9321C65.5217 11.9794 64.7739 12.932 63.724 13.059H63.7245Z" fill="#B97FE6"/>
<path d="M45.8743 7.48562L44.8621 7.96579C44.6693 7.56531 44.3431 7.39257 43.8838 7.4481C43.3937 7.50773 43.168 7.69589 43.2066 8.01309C43.2221 8.13956 43.2808 8.24083 43.3834 8.31743C43.486 8.39403 43.7024 8.44544 44.0328 8.47063C44.5858 8.51382 44.994 8.57551 45.2584 8.65622C45.5223 8.73694 45.7552 8.88962 45.9573 9.11531C46.1593 9.341 46.2784 9.60576 46.3155 9.91011C46.3737 10.3872 46.2397 10.8221 45.914 11.2154C45.5883 11.6082 45.0636 11.8483 44.34 11.9362C43.7973 12.002 43.3205 11.9346 42.9092 11.7346C42.4979 11.5347 42.2021 11.1995 42.0217 10.7291L43.1381 10.3306C43.3272 10.8077 43.7158 11.0108 44.3044 10.9393C44.5884 10.9049 44.793 10.8242 44.9193 10.6977C45.0455 10.5712 45.0991 10.4319 45.0806 10.2797C45.0615 10.125 44.9837 10.0124 44.8466 9.94301C44.7095 9.87309 44.4559 9.82271 44.0854 9.79186C43.3942 9.73428 42.8907 9.60216 42.5747 9.39549C42.2588 9.18934 42.0722 8.85364 42.0155 8.38941C41.9583 7.92004 42.081 7.50362 42.384 7.13964C42.6871 6.77566 43.1319 6.55819 43.7184 6.48673C44.7569 6.36078 45.4754 6.69391 45.8733 7.48562H45.8743Z" fill="white"/>
<path d="M50.5917 6.75611L48.0704 7.062L48.2023 8.1452L50.1845 7.90461L50.3057 8.89887L48.3234 9.13947L48.4642 10.2926L50.9855 9.9867L51.1128 11.0313L47.3308 11.4904L46.6866 6.2086L50.4685 5.74951L50.5912 6.7556L50.5917 6.75611Z" fill="white"/>
<path d="M55.287 5.16555L55.9312 10.4474L54.8731 10.5759L52.3657 7.25998C52.3791 7.34995 52.3889 7.40907 52.3951 7.43683C52.4162 7.52577 52.4312 7.60134 52.4384 7.66304L52.8239 10.8242L51.8581 10.9414L51.2138 5.6596L52.5507 5.49715L54.7319 8.39305C54.6974 8.24037 54.6757 8.12367 54.6659 8.04398L54.3289 5.28123L55.287 5.16504V5.16555Z" fill="white"/>
<path d="M56.3497 5.03649L57.966 4.84062C58.6247 4.76093 59.1267 4.79229 59.472 4.9347C59.8173 5.0771 60.1415 5.33004 60.4456 5.69196C60.7491 6.0544 60.9378 6.53611 61.0109 7.13709C61.1032 7.89281 60.9563 8.55137 60.5713 9.11276C60.1863 9.67364 59.6008 10.0021 58.8154 10.0973L56.9939 10.3183L56.3497 5.03649ZM57.6861 5.86007L58.0907 9.17599L58.6015 9.11379C59.053 9.05878 59.3679 8.85006 59.5462 8.48659C59.7245 8.12364 59.7858 7.71493 59.7307 7.26098C59.6915 6.94122 59.5931 6.65281 59.4349 6.39576C59.2766 6.13871 59.0978 5.967 58.8983 5.87961C58.6994 5.79272 58.469 5.76496 58.2087 5.79632L57.6861 5.85956V5.86007Z" fill="white"/>
</g>
<defs>
<clipPath id="clip0_309_8739">
<rect width="116" height="120" fill="white" transform="translate(0 0.751953)"/>
</clipPath>
</defs>
</svg>
