<svg width="196" height="40" viewBox="0 0 196 40" fill="none" xmlns="http://www.w3.org/2000/svg">
<rect y="0.924316" width="196" height="38.3636" rx="19.1818" fill="#391952"/>
<circle cx="18.9318" cy="20.1061" r="13.3636" fill="#B97FE6"/>
<g clip-path="url(#clip0_309_8130)">
<path fill-rule="evenodd" clip-rule="evenodd" d="M19.5699 22.3245C16.3131 22.3245 13.6827 19.6836 13.6827 16.4373C13.6827 19.6836 11.0418 22.3245 7.79546 22.3245C11.0418 22.3245 13.6827 24.9549 13.6827 28.2012C13.6827 24.9549 16.3131 22.3245 19.5699 22.3245Z" fill="#391952"/>
<path fill-rule="evenodd" clip-rule="evenodd" d="M25.6137 25.3617C23.8287 25.3617 22.3882 23.9107 22.3882 22.1362C22.3882 23.9107 20.9373 25.3617 19.1628 25.3617C20.9373 25.3617 22.3882 26.8022 22.3882 28.5871C22.3882 26.8022 23.8287 25.3617 25.6137 25.3617Z" fill="#391952"/>
<path fill-rule="evenodd" clip-rule="evenodd" d="M23.7556 15.5498C21.5845 15.5498 19.8308 13.7962 19.8308 11.625C19.8308 13.7962 18.0772 15.5498 15.906 15.5498C18.0772 15.5498 19.8308 17.3034 19.8308 19.4746C19.8308 17.3034 21.5845 15.5498 23.7556 15.5498Z" fill="#391952"/>
</g>
<path d="M40.3972 26.7197H45.2248C47.4019 26.7197 49.0111 25.1105 49.0111 23.312C49.0111 22.2518 48.5946 21.5324 48.1592 21.0591C47.9131 20.7751 47.6291 20.548 47.3073 20.3776C47.5345 20.2261 47.7427 20.0368 47.9131 19.8096C48.216 19.431 48.5378 18.863 48.5378 18.1057C48.5378 16.3072 47.0233 14.7927 45.1301 14.7927H40.3972V26.7197ZM42.1957 19.715V16.4965H45.1301C46.0956 16.4965 46.834 17.2538 46.834 18.1057C46.834 18.9577 46.0956 19.715 45.1301 19.715H42.1957ZM42.1957 25.0159V21.2295H45.2248C46.3607 21.2295 47.2126 22.0814 47.2126 23.1227C47.2126 24.1639 46.3607 25.0159 45.2248 25.0159H42.1957ZM50.8178 26.7197H52.5217V21.8921C52.5217 20.7751 53.4493 19.8096 54.6042 19.8096C54.7367 19.8096 54.8692 19.8475 55.0017 19.8664L55.1721 19.9043V18.2004L55.0207 18.1625C54.926 18.1436 54.8124 18.1057 54.6042 18.1057C53.8658 18.1057 53.3357 18.3519 52.976 18.579C52.7678 18.7116 52.5785 18.882 52.427 19.0523L52.0484 18.2004H50.8178V26.7197ZM60.2756 25.2052C59.045 25.2052 57.9091 24.0693 57.9091 22.4601C57.9091 20.8509 59.045 19.715 60.2756 19.715C61.5061 19.715 62.6421 20.8509 62.6421 22.4601C62.6421 24.0693 61.5061 25.2052 60.2756 25.2052ZM60.2756 26.8144C62.5474 26.8144 64.3459 25.0159 64.3459 22.4601C64.3459 19.9043 62.5474 18.1057 60.2756 18.1057C58.0038 18.1057 56.2052 19.9043 56.2052 22.4601C56.2052 25.0159 58.0038 26.8144 60.2756 26.8144ZM68.0376 26.7197H69.4575L71.256 21.1348L73.0546 26.7197H74.4744L77.3142 18.2004H75.6103L73.7172 24.0693L71.824 18.2004H70.6881L68.7949 24.0693L66.9017 18.2004H65.1978L68.0376 26.7197ZM78.1691 23.9746C78.2638 25.7921 79.2861 26.8144 81.3875 26.8144C83.3754 26.8144 84.5113 25.6785 84.5113 24.1639C84.5113 21.1538 79.9676 22.1761 79.9676 20.6615C79.9676 20.1882 80.4409 19.715 81.2929 19.715C82.1448 19.715 82.6181 20.1693 82.7127 20.7562H84.4166C84.3219 19.147 83.2807 18.1057 81.2929 18.1057C79.4943 18.1057 78.3584 19.2417 78.3584 20.6615C78.3584 23.6717 82.9021 22.6494 82.9021 24.1639C82.9021 24.7508 82.4477 25.2052 81.3875 25.2052C80.422 25.2052 79.9676 24.7319 79.873 23.9746H78.1691ZM91.8052 24.2586C91.5212 24.6372 90.9533 25.2052 89.912 25.2052C88.6814 25.2052 87.7348 24.2775 87.6402 23.2173H93.6984L93.7362 22.9902C93.7552 22.8576 93.793 22.6683 93.793 22.4601C93.793 19.9043 92.0134 18.1057 89.8173 18.1057C87.6213 18.1057 85.8417 19.9043 85.8417 22.4601C85.8417 25.0159 87.6402 26.8144 89.912 26.8144C91.8998 26.8144 93.0547 25.6785 93.6037 24.2586H91.8052ZM87.6402 21.7975C87.8484 20.5669 88.6814 19.715 89.8173 19.715C91.1615 19.715 91.9756 20.5669 92.1838 21.7975H87.6402ZM95.596 26.7197H97.2999V21.8921C97.2999 20.7751 98.2275 19.8096 99.3824 19.8096C99.5149 19.8096 99.6474 19.8475 99.7799 19.8664L99.9503 19.9043V18.2004L99.7989 18.1625C99.7042 18.1436 99.5906 18.1057 99.3824 18.1057C98.644 18.1057 98.1139 18.3519 97.7542 18.579C97.546 18.7116 97.3566 18.882 97.2052 19.0523L96.8266 18.2004H95.596V26.7197ZM105.901 26.7197H113.947V25.0159H107.699V21.4188H113.284V19.715H107.699V16.4965H113.757V14.7927H105.901V26.7197ZM114.889 26.7197H116.783L118.865 23.596L120.948 26.7197H122.841L119.906 22.3654L122.651 18.2004H120.758L118.865 21.0402L116.972 18.2004H115.079L117.824 22.3654L114.889 26.7197ZM124.732 23.88C124.732 25.6785 125.868 26.8144 127.383 26.8144C127.648 26.8144 127.875 26.7765 128.064 26.7197C128.159 26.7008 128.254 26.6629 128.33 26.6251V25.1105L128.159 25.1673C128.027 25.1862 127.894 25.2052 127.762 25.2052C127.004 25.2052 126.436 24.6372 126.436 23.88V19.8096H128.33V18.2004H126.436V15.9286H125.016V17.0645C125.016 17.7271 124.543 18.2004 123.881 18.2004H123.218V19.8096H124.732V23.88ZM135.622 24.2586C135.338 24.6372 134.77 25.2052 133.729 25.2052C132.498 25.2052 131.552 24.2775 131.457 23.2173H137.515L137.553 22.9902C137.572 22.8576 137.61 22.6683 137.61 22.4601C137.61 19.9043 135.83 18.1057 133.634 18.1057C131.438 18.1057 129.658 19.9043 129.658 22.4601C129.658 25.0159 131.457 26.8144 133.729 26.8144C135.717 26.8144 136.871 25.6785 137.421 24.2586H135.622ZM131.457 21.7975C131.665 20.5669 132.498 19.715 133.634 19.715C134.978 19.715 135.792 20.5669 136.001 21.7975H131.457ZM139.413 26.7197H141.117V21.7975C141.117 20.6805 142.044 19.715 143.199 19.715C144.259 19.715 145.187 20.6805 145.187 21.7975V26.7197H146.891V21.7975C146.891 19.6203 145.376 18.1057 143.483 18.1057C142.631 18.1057 142.006 18.3519 141.609 18.579C141.382 18.7116 141.192 18.882 141.022 19.0523L140.643 18.2004H139.413V26.7197ZM148.59 23.9746C148.685 25.7921 149.707 26.8144 151.809 26.8144C153.797 26.8144 154.932 25.6785 154.932 24.1639C154.932 21.1538 150.389 22.1761 150.389 20.6615C150.389 20.1882 150.862 19.715 151.714 19.715C152.566 19.715 153.039 20.1693 153.134 20.7562H154.838C154.743 19.147 153.702 18.1057 151.714 18.1057C149.916 18.1057 148.78 19.2417 148.78 20.6615C148.78 23.6717 153.323 22.6494 153.323 24.1639C153.323 24.7508 152.869 25.2052 151.809 25.2052C150.843 25.2052 150.389 24.7319 150.294 23.9746H148.59ZM156.736 26.7197H158.44V18.2004H156.736V26.7197ZM157.588 14.7927C157.001 14.7927 156.547 15.247 156.547 15.8339C156.547 16.4208 157.001 16.8752 157.588 16.8752C158.175 16.8752 158.629 16.4208 158.629 15.8339C158.629 15.247 158.175 14.7927 157.588 14.7927ZM164.308 25.2052C163.078 25.2052 161.942 24.0693 161.942 22.4601C161.942 20.8509 163.078 19.715 164.308 19.715C165.539 19.715 166.675 20.8509 166.675 22.4601C166.675 24.0693 165.539 25.2052 164.308 25.2052ZM164.308 26.8144C166.58 26.8144 168.378 25.0159 168.378 22.4601C168.378 19.9043 166.58 18.1057 164.308 18.1057C162.036 18.1057 160.238 19.9043 160.238 22.4601C160.238 25.0159 162.036 26.8144 164.308 26.8144ZM170.177 26.7197H171.881V21.7975C171.881 20.6805 172.809 19.715 173.963 19.715C175.024 19.715 175.951 20.6805 175.951 21.7975V26.7197H177.655V21.7975C177.655 19.6203 176.141 18.1057 174.247 18.1057C173.395 18.1057 172.771 18.3519 172.373 18.579C172.146 18.7116 171.957 18.882 171.786 19.0523L171.408 18.2004H170.177V26.7197Z" fill="white"/>
<defs>
<clipPath id="clip0_309_8130">
<rect width="17.8182" height="17.8182" fill="white" transform="translate(7.79546 11.1973)"/>
</clipPath>
</defs>
</svg>
