<svg width="188" height="153" viewBox="0 0 188 153" fill="none" xmlns="http://www.w3.org/2000/svg">
<rect y="0.751953" width="188" height="152" rx="8" fill="#B081DF"/>
<path d="M0 48.752H188V144.752C188 149.17 184.418 152.752 180 152.752H8C3.58172 152.752 0 149.17 0 144.752V48.752Z" fill="#5A7AF9"/>
<circle cx="44.5" cy="101.252" r="21.5" fill="#172662"/>
<path d="M46.2917 107.523L43.7 100.13C42.4965 96.6976 41.8947 94.9812 40.9167 94.9812C39.9386 94.9812 39.3369 96.6976 38.1334 100.13L35.5417 107.523" stroke="white" stroke-width="1.5" stroke-linecap="round"/>
<path d="M37.7812 101.252H44.0521" stroke="white" stroke-width="1.5" stroke-linecap="round"/>
<path d="M52.7083 107.075C52.7083 107.489 53.0441 107.825 53.4583 107.825C53.8726 107.825 54.2083 107.489 54.2083 107.075H52.7083ZM51.5691 99.4879L51.6864 98.7471L51.6864 98.7471L51.5691 99.4879ZM53.4308 101.35L52.69 101.467V101.467L53.4308 101.35ZM49.9726 99.4879L49.8553 98.7471L49.8553 98.7471L49.9726 99.4879ZM53.4583 103.044H54.2083C54.2083 102.629 53.8726 102.294 53.4583 102.294V103.044ZM47.5827 100.504C47.4171 100.884 47.5906 101.326 47.9702 101.491C48.3498 101.657 48.7919 101.484 48.9576 101.104L47.5827 100.504ZM52.7083 102.148V107.075H54.2083V102.148H52.7083ZM50.7708 100.21C51.2156 100.21 51.3507 100.213 51.4518 100.229L51.6864 98.7471C51.4393 98.708 51.1583 98.7103 50.7708 98.7103V100.21ZM54.2083 102.148C54.2083 101.76 54.2107 101.479 54.1715 101.232L52.69 101.467C52.706 101.568 52.7083 101.703 52.7083 102.148H54.2083ZM51.4518 100.229C52.0892 100.33 52.5891 100.83 52.69 101.467L54.1715 101.232C53.9689 99.953 52.9657 98.9497 51.6864 98.7471L51.4518 100.229ZM50.7708 98.7103C50.3834 98.7103 50.1023 98.708 49.8553 98.7471L50.0899 100.229C50.191 100.213 50.3261 100.21 50.7708 100.21V98.7103ZM50.3229 103.794H53.4583V102.294H50.3229V103.794ZM52.7083 103.044V104.451H54.2083V103.044H52.7083ZM52.7083 104.451C52.7083 105.733 51.669 106.773 50.3869 106.773V108.273C52.4974 108.273 54.2083 106.562 54.2083 104.451H52.7083ZM50.3229 102.294C48.6718 102.294 47.3333 103.632 47.3333 105.283H48.8333C48.8333 104.461 49.5003 103.794 50.3229 103.794V102.294ZM48.9576 101.104C49.1575 100.646 49.58 100.309 50.0899 100.229L49.8553 98.7471C48.8308 98.9094 47.9838 99.585 47.5827 100.504L48.9576 101.104ZM50.3869 106.773C49.5237 106.773 48.8333 106.107 48.8333 105.283H47.3333C47.3333 107.001 48.7628 108.273 50.3869 108.273V106.773Z" fill="white"/>
<path d="M87.536 90.894H80.804V93.324C82.244 93.324 83.144 93.792 83.144 94.458C83.144 95.088 82.352 95.52 81.272 95.52C79.166 95.52 77.87 93.882 77.87 91.398C77.87 89.004 79.076 87.384 81.11 87.384C82.586 87.384 83.54 88.248 83.396 89.868H86.546C86.816 86.628 84.422 84.864 81.164 84.864C77.186 84.864 74.72 87.492 74.72 91.398C74.72 95.394 77.294 98.04 81.344 98.04C84.296 98.04 86.294 96.672 86.294 95.016C86.294 94.26 85.898 93.702 85.232 93.324H87.536V90.894ZM93.8062 88.464C92.5822 88.464 91.6642 89.13 91.2322 90.228V88.752H88.3522V97.752H91.2322V93.288C91.2322 91.83 91.8262 90.894 92.6182 90.894C93.1762 90.894 93.5182 91.344 93.5182 92.028C93.5182 92.568 93.3022 93.144 92.9422 93.81H95.9122C96.2542 93.108 96.4522 92.28 96.4522 91.47C96.4522 89.616 95.3902 88.464 93.8062 88.464ZM101.01 88.464C98.5804 88.464 96.6184 89.652 97.0864 91.776H99.9124C99.8224 91.182 100.236 90.858 100.974 90.858C102.072 90.858 102.468 91.578 102.486 92.586C101.946 92.496 101.298 92.424 100.65 92.424C98.0764 92.424 96.4564 93.504 96.4564 95.34C96.4564 96.852 97.5544 98.04 99.5884 98.04C101.082 98.04 102.18 97.41 102.846 96.222V97.752H105.366V92.676C105.366 90.084 103.89 88.464 101.01 88.464ZM100.326 95.934C99.6964 95.934 99.3004 95.682 99.3004 95.16C99.3004 94.62 99.7144 94.278 100.92 94.278C101.37 94.278 102 94.332 102.54 94.494C102.09 95.376 101.28 95.934 100.326 95.934ZM117.549 88.464C116.181 88.464 115.209 89.184 114.759 90.318C114.381 89.202 113.355 88.464 112.077 88.464C110.817 88.464 109.719 89.184 109.233 90.336V88.752H106.353V97.752H109.233V93.288C109.233 91.74 109.971 90.786 110.871 90.786C111.591 90.786 111.987 91.398 111.987 92.334V97.752H114.867V93.234C114.867 91.812 115.533 90.876 116.469 90.876C117.153 90.876 117.549 91.47 117.549 92.334V97.752H120.429V92.334C120.429 89.85 119.421 88.464 117.549 88.464ZM132.622 88.464C131.254 88.464 130.282 89.184 129.832 90.318C129.454 89.202 128.428 88.464 127.15 88.464C125.89 88.464 124.792 89.184 124.306 90.336V88.752H121.426V97.752H124.306V93.288C124.306 91.74 125.044 90.786 125.944 90.786C126.664 90.786 127.06 91.398 127.06 92.334V97.752H129.94V93.234C129.94 91.812 130.606 90.876 131.542 90.876C132.226 90.876 132.622 91.47 132.622 92.334V97.752H135.502V92.334C135.502 89.85 134.494 88.464 132.622 88.464ZM140.694 88.464C138.264 88.464 136.302 89.652 136.77 91.776H139.596C139.506 91.182 139.92 90.858 140.658 90.858C141.756 90.858 142.152 91.578 142.17 92.586C141.63 92.496 140.982 92.424 140.334 92.424C137.76 92.424 136.14 93.504 136.14 95.34C136.14 96.852 137.238 98.04 139.272 98.04C140.766 98.04 141.864 97.41 142.53 96.222V97.752H145.05V92.676C145.05 90.084 143.574 88.464 140.694 88.464ZM140.01 95.934C139.38 95.934 138.984 95.682 138.984 95.16C138.984 94.62 139.398 94.278 140.604 94.278C141.054 94.278 141.684 94.332 142.224 94.494C141.774 95.376 140.964 95.934 140.01 95.934ZM151.491 88.464C150.267 88.464 149.349 89.13 148.917 90.228V88.752H146.037V97.752H148.917V93.288C148.917 91.83 149.511 90.894 150.303 90.894C150.861 90.894 151.203 91.344 151.203 92.028C151.203 92.568 150.987 93.144 150.627 93.81H153.597C153.939 93.108 154.137 92.28 154.137 91.47C154.137 89.616 153.075 88.464 151.491 88.464ZM81.29 118.04C84.584 118.04 87.014 116.186 87.446 113.09H84.224C84.008 114.44 82.91 115.52 81.29 115.52C79.238 115.52 77.87 113.792 77.87 111.434C77.87 109.238 79.112 107.384 81.236 107.384C82.946 107.384 84.134 108.572 83.774 110.498H86.924C87.5 107.312 84.872 104.864 81.2 104.864C77.312 104.864 74.72 107.654 74.72 111.434C74.72 115.016 77.096 118.04 81.29 118.04ZM93.9343 108.464C92.5663 108.464 91.5763 109.148 91.1443 110.246V105.152H88.2643V117.752H91.1443V113.288C91.1443 111.794 91.8463 110.786 92.8183 110.786C93.5743 110.786 94.0243 111.398 94.0243 112.334V117.752H96.9043V112.334C96.9043 109.85 95.8783 108.464 93.9343 108.464ZM104.063 114.764C103.793 115.322 103.253 115.61 102.497 115.61C101.363 115.61 100.733 114.98 100.553 113.882H106.763C107.807 111.002 105.773 108.464 102.407 108.464C99.4907 108.464 97.5287 110.372 97.5287 113.252C97.5287 116.132 99.4547 118.04 102.425 118.04C104.891 118.04 106.637 116.744 107.177 114.764H104.063ZM102.407 110.804C103.487 110.804 104.027 111.398 103.937 112.262H100.589C100.823 111.29 101.453 110.804 102.407 110.804ZM112.436 118.04C114.938 118.04 116.648 116.672 117.188 114.584H114.074C113.732 115.214 113.228 115.61 112.472 115.61C111.302 115.61 110.51 114.692 110.51 113.234C110.51 111.794 111.266 110.894 112.49 110.894C113.696 110.894 114.308 111.776 113.948 113.36H116.738C117.674 110.354 115.46 108.464 112.472 108.464C109.484 108.464 107.54 110.354 107.54 113.252C107.54 116.132 109.502 118.04 112.436 118.04ZM125.039 114.26C126.155 113.684 126.821 112.622 126.821 111.29C126.821 109.58 125.741 108.464 123.851 108.464C122.357 108.464 121.259 109.166 120.791 110.318V105.152H117.911V117.752H120.791V113.288C120.791 111.794 121.547 110.894 122.645 110.894C123.383 110.894 123.851 111.29 123.851 111.956C123.851 112.748 123.203 113.342 122.177 113.342V115.052C123.185 115.358 123.977 116.258 124.121 117.752H127.505C127.145 116.132 126.263 114.908 125.039 114.26ZM133.938 114.764C133.668 115.322 133.128 115.61 132.372 115.61C131.238 115.61 130.608 114.98 130.428 113.882H136.638C137.682 111.002 135.648 108.464 132.282 108.464C129.366 108.464 127.404 110.372 127.404 113.252C127.404 116.132 129.33 118.04 132.3 118.04C134.766 118.04 136.512 116.744 137.052 114.764H133.938ZM132.282 110.804C133.362 110.804 133.902 111.398 133.812 112.262H130.464C130.698 111.29 131.328 110.804 132.282 110.804ZM143.229 108.464C142.005 108.464 141.087 109.13 140.655 110.228V108.752H137.775V117.752H140.655V113.288C140.655 111.83 141.249 110.894 142.041 110.894C142.599 110.894 142.941 111.344 142.941 112.028C142.941 112.568 142.725 113.144 142.365 113.81H145.335C145.677 113.108 145.875 112.28 145.875 111.47C145.875 109.616 144.813 108.464 143.229 108.464Z" fill="#172662"/>
<path d="M0 8.75195C0 4.33368 3.58172 0.751953 8 0.751953H180C184.418 0.751953 188 4.33368 188 8.75195V48.752H0V8.75195Z" fill="white"/>
<rect x="12" y="16.752" width="97" height="6" rx="3" fill="#E8ECFE"/>
<rect x="12" y="26.752" width="68" height="6" rx="3" fill="#E8ECFE"/>
<circle cx="162" cy="24.752" r="14" fill="#E8ECFE"/>
<g clip-path="url(#clip0_309_8306)">
<path d="M161.154 19.502C158.907 19.506 157.73 19.5612 156.978 20.3132C156.167 21.1248 156.167 22.431 156.167 25.0435C156.167 27.6559 156.167 28.9621 156.978 29.7737C157.79 30.5853 159.096 30.5853 161.709 30.5853C164.321 30.5853 165.627 30.5853 166.439 29.7737C167.191 29.0217 167.246 27.8449 167.25 25.5976" stroke="#172662" stroke-width="0.875" stroke-linecap="round" stroke-linejoin="round"/>
<path d="M161.449 25.3354C161.027 20.0074 164.801 18.4961 167.822 19.0146C167.944 20.7803 167.08 21.4415 165.435 21.7468C165.752 22.0788 166.314 22.4966 166.253 23.0188C166.21 23.3905 165.958 23.5728 165.453 23.9375C164.347 24.7366 163.065 25.2406 161.449 25.3354Z" stroke="#172662" stroke-width="0.875" stroke-linecap="round" stroke-linejoin="round"/>
<path d="M160.25 27.6687C161.417 24.4604 162.56 23.3732 163.75 22.4187" stroke="#172662" stroke-width="0.875" stroke-linecap="round" stroke-linejoin="round"/>
</g>
<defs>
<clipPath id="clip0_309_8306">
<rect width="14" height="14" fill="white" transform="translate(155 17.752)"/>
</clipPath>
</defs>
</svg>
