<svg width="118" height="121" viewBox="0 0 118 121" fill="none" xmlns="http://www.w3.org/2000/svg">
<g style="mix-blend-mode:multiply" opacity="0.2">
<path d="M105.869 99.4957L98.457 21.6238C98.3552 20.5553 97.4067 19.7718 96.3387 19.8736L36.9177 25.5293C35.8493 25.6311 35.0658 26.5796 35.1676 27.6476L42.5793 105.52C42.6811 106.588 43.6296 107.371 44.6976 107.27L104.119 101.614C105.187 101.512 105.97 100.564 105.869 99.4957Z" fill="#3A7EC1"/>
</g>
<path d="M106.789 98.5981L99.3777 20.7262C99.2759 19.6577 98.3274 18.8743 97.2595 18.9761L37.8385 24.6318C36.77 24.7336 35.9866 25.682 36.0883 26.75L43.5001 104.622C43.6019 105.69 44.5503 106.474 45.6183 106.372L105.039 100.716C106.108 100.615 106.891 99.6661 106.789 98.5981Z" fill="#3B82F4"/>
<g style="mix-blend-mode:multiply" opacity="0.2">
<path d="M96.521 88.6669L75.9087 13.2077C75.626 12.1725 74.5576 11.5626 73.5223 11.8452L15.9423 27.5735C14.9071 27.8562 14.2972 28.9246 14.5799 29.9599L35.1917 105.419C35.4744 106.454 36.5428 107.064 37.5781 106.782L95.1585 91.0533C96.1938 90.7706 96.8037 89.7022 96.521 88.6669Z" fill="#3A7EC1"/>
</g>
<path d="M95.8048 89.7999L38.2243 105.528C37.189 105.811 36.1206 105.201 35.8379 104.166L15.2265 28.7064C14.9439 27.6712 15.5538 26.6028 16.589 26.3201L74.169 10.5918C75.2043 10.3092 76.2727 10.919 76.5554 11.9543L97.1672 87.4135C97.4499 88.4488 96.84 89.5172 95.8048 89.7999Z" fill="white"/>
<path d="M48.8227 29.5917L26.6866 35.6382C25.7195 35.9023 24.7215 35.3328 24.4575 34.3657C24.1934 33.3987 24.7629 32.4007 25.7299 32.1366L47.866 26.0901C48.8331 25.8261 49.8311 26.3955 50.0951 27.3626C50.3592 28.3297 49.7897 29.3276 48.8227 29.5917Z" fill="#52D1BD"/>
<path d="M72.9965 32.6912L34.7082 43.1496C33.9179 43.3654 33.1021 42.8996 32.8863 42.1093C32.6704 41.319 33.1362 40.5033 33.9265 40.2874L72.2149 29.8285C73.0052 29.6127 73.8209 30.0785 74.0368 30.8688C74.2527 31.6591 73.7868 32.4748 72.9965 32.6907V32.6912Z" fill="#E4ECF9"/>
<path d="M75.2111 40.7976L31.0475 52.8612C30.2572 53.077 29.4415 52.6112 29.2256 51.8209C29.0097 51.0306 29.4756 50.2149 30.2659 49.999L74.4294 37.9355C75.2197 37.7196 76.0355 38.1854 76.2513 38.9757C76.4672 39.766 76.0014 40.5818 75.2111 40.7976Z" fill="#E4ECF9"/>
<path d="M77.4252 48.9047L33.2616 60.9682C32.4713 61.1841 31.6556 60.7183 31.4397 59.928C31.2239 59.1377 31.6897 58.3219 32.48 58.1061L76.6435 46.0425C77.4338 45.8267 78.2496 46.2925 78.4655 47.0828C78.6813 47.8731 78.2155 48.6888 77.4252 48.9047Z" fill="#E4ECF9"/>
<path d="M79.6398 57.0113L35.4762 69.0748C34.6859 69.2907 33.8701 68.8248 33.6543 68.0345C33.4384 67.2442 33.9042 66.4285 34.6945 66.2126L78.8581 54.1491C79.6484 53.9332 80.4642 54.399 80.68 55.1893C80.8959 55.9796 80.4301 56.7954 79.6398 57.0113Z" fill="#E4ECF9"/>
<path d="M69.8217 68.4046L37.6908 77.1815C36.9005 77.3973 36.0847 76.9315 35.8688 76.1412C35.653 75.3509 36.1188 74.5352 36.9091 74.3193L69.04 65.5424C69.8303 65.3265 70.6461 65.7924 70.862 66.5827C71.0778 67.373 70.612 68.1887 69.8217 68.4046Z" fill="#E4ECF9"/>
<path d="M84.0684 73.2245L39.9049 85.2881C39.1146 85.5039 38.2988 85.0381 38.083 84.2478C37.8671 83.4575 38.3329 82.6418 39.1232 82.4259L83.2868 70.3624C84.0771 70.1465 84.8928 70.6123 85.1087 71.4026C85.3246 72.1929 84.8587 73.0086 84.0684 73.2245Z" fill="#E4ECF9"/>
<path d="M86.283 81.3311L42.1194 93.3946C41.3291 93.6105 40.5134 93.1447 40.2975 92.3544C40.0816 91.5641 40.5475 90.7483 41.3378 90.5325L85.5013 78.4689C86.2916 78.2531 87.1074 78.7189 87.3233 79.5092C87.5391 80.2995 87.0733 81.1152 86.283 81.3311Z" fill="#E4ECF9"/>
<path d="M32.1991 63.0342C31.851 63.0342 31.507 62.9438 31.1961 62.7661C30.7253 62.4975 30.3877 62.0617 30.245 61.5386L29.5919 59.1482C29.4492 58.6251 29.5183 58.0779 29.7873 57.6076C30.0559 57.1367 30.4917 56.7991 31.0148 56.6564L61.2588 48.3953C61.7819 48.2521 62.3291 48.3217 62.7994 48.5907C63.2703 48.8593 63.6079 49.2951 63.7506 49.8182L64.0428 50.888C64.0951 51.0793 63.9824 51.277 63.7911 51.3288C63.5998 51.3815 63.4025 51.2684 63.3503 51.077L63.058 50.0072C62.9658 49.6696 62.7476 49.3878 62.4436 49.2142C62.1396 49.0406 61.786 48.9956 61.4484 49.0883L31.2043 57.3494C30.5072 57.5398 30.0945 58.262 30.2849 58.9591L30.938 61.3496C31.1284 62.0467 31.851 62.4589 32.5477 62.2689L57.8963 55.3448C58.0881 55.2921 58.2853 55.4053 58.3376 55.5966C58.3899 55.7879 58.2772 55.9856 58.0858 56.0379L32.7372 62.962C32.5595 63.0106 32.3786 63.0347 32.1991 63.0347V63.0342Z" fill="#52D1BD"/>
<g style="mix-blend-mode:multiply" opacity="0.2">
<path d="M55.3137 21.3175L55.7899 9.15076L53.0945 10.5696C49.6411 6.8294 45.0025 4.47532 39.9062 3.90406C34.2828 3.27328 28.7502 4.87069 24.3284 8.40091C19.9061 11.9316 17.1234 16.9724 16.4927 22.5958C16.4268 23.1853 16.3845 23.7833 16.3677 24.3737L22.4706 24.5473C22.4824 24.126 22.5128 23.6983 22.5601 23.2762C23.4867 15.0132 30.963 9.04487 39.2259 9.97151C42.2949 10.3155 45.1307 11.5676 47.4197 13.5567L45.0139 14.8228L55.3132 21.3175H55.3137Z" fill="#3A7EC1"/>
</g>
<path d="M55.7204 18.3008L56.1967 6.13409L53.5013 7.5529C50.0483 3.81227 45.4092 1.45819 40.313 0.886486C34.6895 0.255701 29.157 1.85311 24.7351 5.38333C20.3128 8.914 17.5302 13.9548 16.8994 19.5783C16.8335 20.1677 16.7912 20.7658 16.7744 21.3561L22.8773 21.5297C22.8891 21.1084 22.9196 20.6808 22.9668 20.2586C23.8935 11.9957 31.3697 6.02729 39.6326 6.95393C42.7016 7.29795 45.5374 8.54998 47.8265 10.5391L45.4206 11.8052L55.7199 18.2999L55.7204 18.3008Z" fill="#B97FE6"/>
<g style="mix-blend-mode:multiply" opacity="0.2">
<path d="M36.9536 22.5463L8.57195 14.3224C7.58305 14.0357 6.55417 14.4365 6.27422 15.2168L0.364931 31.6808C0.0849857 32.4611 0.659418 33.3264 1.64831 33.6127L30.0304 41.8361C31.0193 42.1229 32.0482 41.722 32.3282 40.9417L38.2375 24.4777C38.5174 23.6974 37.943 22.8321 36.9541 22.5458L36.9536 22.5463Z" fill="#3A7EC1"/>
</g>
<path d="M30.0904 42.0366L1.56469 38.0283C0.570798 37.8888 -0.121792 36.9698 0.0177256 35.9755L2.96396 15.0092C3.10348 14.0153 4.02239 13.3227 5.01674 13.4622L33.5425 17.4701C34.5364 17.6096 35.229 18.5285 35.0895 19.5228L32.1437 40.4896C32.0042 41.4835 31.0852 42.1761 30.0909 42.0366H30.0904Z" fill="#3B82F4"/>
<path d="M21.7998 25.2481L23.6126 25.5026L23.7567 24.476L18.6377 23.7566L18.8908 21.9538L17.8642 21.8097L17.6111 23.6125L12.4921 22.8931L12.348 23.9197L14.1608 24.1742C14.1954 24.9268 14.3522 26.496 15.0298 28.2152C15.3324 28.9828 15.7628 29.8304 16.3727 30.6552C14.9675 31.4823 13.3506 31.8823 11.5341 31.8464L11.5136 32.8825C13.8086 32.928 15.6224 32.3185 17.0326 31.456C18.1505 32.6735 19.7257 33.7592 21.9448 34.3481L22.2106 33.3465C20.4551 32.8807 19.0103 32.0509 17.8878 30.8684C18.7013 30.2435 19.3489 29.5473 19.8511 28.8928C20.9763 27.4268 21.5594 25.9616 21.7998 25.2477V25.2481ZM17.2262 30.0808C16.7412 29.4277 16.3341 28.6906 16.0073 27.8694C15.4311 26.4206 15.2593 25.0636 15.2088 24.3219L20.7514 25.1009C20.4987 25.7998 19.9597 27.0573 19.0063 28.2907C18.4659 28.9901 17.8715 29.5863 17.2252 30.0808H17.2262Z" fill="white"/>
<g style="mix-blend-mode:multiply" opacity="0.2">
<path d="M72.0154 72.7547C72.0154 72.7547 72.0181 72.7583 72.0199 72.7601C72.4612 73.2337 73.3292 73.286 73.9591 72.8769C74.5889 72.4679 74.7416 71.7526 74.3008 71.2791C74.299 71.2773 74.2972 71.2759 74.2954 71.2741L61.0875 57.1005L58.1181 55.5454C58.0436 55.4654 57.8963 55.4563 57.7895 55.5258C57.6827 55.5949 57.6568 55.7162 57.7318 55.7962L58.8066 58.5816H58.8075L72.0154 72.7551V72.7547Z" fill="#3A7EC1"/>
</g>
<path d="M58.3023 55.7689C58.3682 55.6507 58.2978 55.486 58.1452 55.401C57.9925 55.316 57.8155 55.343 57.7496 55.4612C57.6838 55.5794 57.7542 55.7441 57.9068 55.829C58.0594 55.914 58.2365 55.8871 58.3023 55.7689Z" fill="#3B82F4"/>
<path d="M61.4388 53.3326L58.304 55.7744L57.7514 55.4667L58.1767 51.5161L61.4388 53.3326Z" fill="#444444"/>
<path d="M73.0688 32.4481L61.4384 53.3317C60.3177 53.6507 59.5669 53.4021 59.072 52.9981C58.3617 52.4164 58.1772 51.5157 58.1772 51.5157L69.8076 30.6321L73.0688 32.4481Z" fill="#3B82F4"/>
<path d="M59.0725 52.9981C58.3621 52.4164 58.1776 51.5157 58.1776 51.5157L69.8081 30.6321L70.0889 30.7884C67.5503 35.8597 60.8253 49.4538 59.0725 52.9981Z" fill="#55B6FF"/>
<path d="M73.0669 32.4435C73.4552 31.7461 73.0397 30.7742 72.1389 30.2726C71.2381 29.771 70.193 29.9297 69.8047 30.627C69.4164 31.3244 69.8319 32.2963 70.7328 32.7979C71.6336 33.2995 72.6786 33.1408 73.0669 32.4435Z" fill="#444444"/>
<g style="mix-blend-mode:multiply" opacity="0.2">
<path d="M64.2582 107.589L68.9701 118.817L70.8129 116.392C75.5238 118.321 80.7227 118.494 85.5827 116.857C90.9453 115.051 95.284 111.265 97.7989 106.196C100.314 101.127 100.705 95.3824 98.8987 90.0194C98.7092 89.4572 98.4947 88.8973 98.2602 88.3556L92.6558 90.7783C92.8231 91.1655 92.9767 91.5654 93.1121 91.9681C95.7657 99.8479 91.5138 108.418 83.6335 111.071C80.7068 112.057 77.6074 112.121 74.6921 111.286L76.3368 109.122L64.2573 107.59L64.2582 107.589Z" fill="#3A7EC1"/>
</g>
<path d="M63.6965 109.524L68.4083 120.752L70.2512 118.327C74.9621 120.256 80.161 120.429 85.021 118.792C90.3836 116.986 94.7222 113.2 97.2372 108.131C99.7522 103.062 100.143 97.3174 98.337 91.9544C98.1475 91.3922 97.933 90.8324 97.6985 90.2906L92.0941 92.7134C92.2614 93.1006 92.415 93.5005 92.5504 93.9031C95.204 101.783 90.9521 110.353 83.0718 113.006C80.1451 113.992 77.0457 114.056 74.1304 113.221L75.7751 111.057L63.6956 109.525L63.6965 109.524Z" fill="#B97FE6"/>
<g style="mix-blend-mode:multiply" opacity="0.2">
<path d="M110.668 84.2957L98.7792 63.6607C98.2888 62.7491 97.1522 62.4078 96.241 62.8981L70.0816 76.9713C69.17 77.4616 68.8287 78.5982 69.3191 79.5094L81.2081 100.144C81.6984 101.056 82.835 101.397 83.7462 100.907L109.906 86.8339C110.817 86.3435 111.159 85.2069 110.668 84.2957Z" fill="#3A7EC1"/>
</g>
<path d="M110.946 89.1655L83.2486 99.8998C82.2833 100.274 81.1981 99.7948 80.8241 98.8295L72.9343 78.4717C72.5603 77.5065 73.0392 76.4212 74.0045 76.0472L101.702 65.313C102.667 64.9389 103.752 65.4179 104.126 66.3832L112.016 86.741C112.39 87.7063 111.911 88.7915 110.946 89.1655Z" fill="white"/>
<path d="M91.2752 85.4163L91.4738 89.3164L90.0059 89.8854L89.4806 77.4451L91.1929 76.7816L99.2045 86.3206L97.6876 86.9087L95.1731 83.9061L91.2752 85.4167V85.4163ZM94.45 82.9104L92.1473 80.1637C91.6247 79.5411 91.2084 78.9516 90.7989 78.379L90.7662 78.3918C90.8562 79.1075 90.9357 79.8456 90.983 80.5963L91.1393 84.1938L94.45 82.9104Z" fill="#3B82F4"/>
<path d="M114.424 58.5733C116.133 58.5733 117.519 57.1875 117.519 55.478C117.519 53.7685 116.133 52.3827 114.424 52.3827C112.714 52.3827 111.329 53.7685 111.329 55.478C111.329 57.1875 112.714 58.5733 114.424 58.5733Z" fill="#52D1BD"/>
<path d="M94.5914 4.74935C95.6952 4.74935 96.5901 3.8545 96.5901 2.75065C96.5901 1.6468 95.6952 0.751953 94.5914 0.751953C93.4875 0.751953 92.5927 1.6468 92.5927 2.75065C92.5927 3.8545 93.4875 4.74935 94.5914 4.74935Z" fill="#52D1BD"/>
<path d="M16.3677 70.9382C17.4715 70.9382 18.3664 70.0433 18.3664 68.9395C18.3664 67.8356 17.4715 66.9408 16.3677 66.9408C15.2638 66.9408 14.369 67.8356 14.369 68.9395C14.369 70.0433 15.2638 70.9382 16.3677 70.9382Z" fill="#52D1BD"/>
</svg>
