<svg width="42" height="43" viewBox="0 0 42 43" fill="none" xmlns="http://www.w3.org/2000/svg">
<g clip-path="url(#clip0_507_222)">
<path d="M36.75 24.5519H32.55V9.85192C32.5499 9.66629 32.4762 9.48828 32.3449 9.35702L23.9449 0.957079C23.8137 0.825821 23.6357 0.752022 23.45 0.751953H5.25001C4.09024 0.751953 3.15001 1.69218 3.15001 2.85196V36.4519C3.15001 37.6117 4.09024 38.5519 5.25001 38.5519H20.65V40.652C20.65 41.8117 21.5902 42.752 22.75 42.752H36.75C37.9098 42.752 38.85 41.8117 38.85 40.652V26.652C38.85 25.4922 37.9098 24.5519 36.75 24.5519ZM24.15 3.14173L30.1601 9.1519H24.8499C24.4634 9.1519 24.1499 8.83851 24.1499 8.45187V3.14173H24.15ZM5.25001 37.152C4.86344 37.152 4.54999 36.8386 4.54999 36.4519V2.85196C4.54999 2.46539 4.86338 2.15193 5.25001 2.15193H22.75V8.45194C22.75 9.61172 23.6902 10.5519 24.85 10.5519H31.15V24.5519H22.75C21.5902 24.5519 20.65 25.4922 20.65 26.652V37.152H5.25001ZM37.45 40.652C37.45 41.0385 37.1366 41.352 36.75 41.352H22.75C22.3634 41.352 22.05 41.0386 22.05 40.652V26.652C22.05 26.2654 22.3634 25.9519 22.75 25.9519H36.75C37.1366 25.9519 37.45 26.2653 37.45 26.652V40.652Z" fill="#391952"/>
<path d="M33.39 29.032L27.65 36.6851L26.1099 34.6319C25.878 34.3227 25.4392 34.26 25.13 34.492C24.8207 34.7239 24.758 35.1627 24.99 35.4719L27.09 38.272C27.2222 38.4483 27.4297 38.552 27.65 38.552C27.8703 38.552 28.0778 38.4483 28.2099 38.272L34.5099 29.872C34.66 29.6719 34.6919 29.407 34.5937 29.177C34.4955 28.947 34.282 28.7869 34.0337 28.757C33.7854 28.727 33.5401 28.8318 33.39 29.032Z" fill="#391952"/>
<path d="M12.95 13.3521H7.35002C6.96345 13.3521 6.64999 13.6654 6.64999 14.0521C6.64999 14.4386 6.96338 14.7521 7.35002 14.7521H9.45002V21.0521C9.45002 21.4387 9.76341 21.7521 10.15 21.7521C10.5367 21.7521 10.8501 21.4387 10.8501 21.0521V14.7521H12.9501C13.3366 14.7521 13.6501 14.4387 13.6501 14.0521C13.65 13.6654 13.3366 13.3521 12.95 13.3521Z" fill="#391952"/>
<path d="M15.75 14.7519H17.85C18.2366 14.7519 18.5501 14.4385 18.5501 14.0518C18.5501 13.6653 18.2367 13.3518 17.85 13.3518H15.75C15.3635 13.3518 15.05 13.6652 15.05 14.0518C15.05 14.4385 15.3634 14.7519 15.75 14.7519Z" fill="#391952"/>
<path d="M20.65 14.7519H28.35C28.7365 14.7519 29.05 14.4385 29.05 14.0518C29.05 13.6653 28.7366 13.3518 28.35 13.3518H20.65C20.2634 13.3518 19.95 13.6652 19.95 14.0518C19.95 14.4385 20.2634 14.7519 20.65 14.7519Z" fill="#391952"/>
<path d="M15.75 18.2519H28.35C28.7366 18.2519 29.0501 17.9385 29.0501 17.5518C29.0501 17.1653 28.7367 16.8518 28.35 16.8518H15.75C15.3635 16.8518 15.05 17.1652 15.05 17.5518C15.05 17.9385 15.3634 18.2519 15.75 18.2519Z" fill="#391952"/>
<path d="M19.95 20.3521H15.75C15.3634 20.3521 15.0499 20.6654 15.0499 21.0521C15.0499 21.4387 15.3633 21.7521 15.75 21.7521H19.95C20.3365 21.7521 20.65 21.4387 20.65 21.0521C20.65 20.6654 20.3366 20.3521 19.95 20.3521Z" fill="#391952"/>
<path d="M22.75 21.7521C23.1366 21.7521 23.45 21.4387 23.45 21.0521C23.45 20.6655 23.1366 20.3521 22.75 20.3521C22.3634 20.3521 22.05 20.6655 22.05 21.0521C22.05 21.4387 22.3634 21.7521 22.75 21.7521Z" fill="#391952"/>
</g>
<defs>
<clipPath id="clip0_507_222">
<rect width="42" height="42" fill="white" transform="translate(0 0.751953)"/>
</clipPath>
</defs>
</svg>
