<svg width="24" height="24" viewBox="0 0 24 24" fill="none" xmlns="http://www.w3.org/2000/svg">
<path d="M21 21H17V14.25C17 13.1914 15.8121 12.3058 14.7535 12.3058C13.6949 12.3058 13 13.1914 13 14.25V21L8.99999 21L8.99999 9L13 9V11C13.6623 9.92857 15.3564 9.23727 16.525 9.23727C18.9965 9.23727 21 11.2786 21 13.75V21ZM6.99998 21H2.99998L2.99998 9H6.99998L6.99998 21ZM4.99999 3C6.10456 3 6.99999 3.89543 6.99999 5C6.99999 6.10457 6.10456 7 4.99999 7C3.89542 7 2.99999 6.10457 2.99999 5C2.99999 3.89543 3.89542 3 4.99999 3Z" fill="#391952"/>
</svg>
