<svg width="42" height="43" viewBox="0 0 42 43" fill="none" xmlns="http://www.w3.org/2000/svg">
<g clip-path="url(#clip0_507_256)">
<path d="M37.6356 18.2685L34.407 20.5454C35.0267 18.7697 36.0865 14.9877 36.8084 11.3899C36.9541 10.6635 37.0901 9.9142 36.9509 9.18653C36.918 9.01483 36.5969 8.05389 36.2442 7.96373C35.9728 7.46327 35.5483 7.18418 35.0659 7.09449C30.8369 6.32979 26.5237 6.06244 22.3524 5.80395C18.5371 5.56763 14.5926 5.32308 10.6994 4.69966C10.4726 4.66228 10.235 4.80103 10.1603 5.02848L9.27473 7.73462C7.05999 7.55249 5.15863 9.224 4.92523 11.0092C4.73508 12.4544 5.67147 13.8565 7.09733 14.3884L6.78554 15.3411C4.55966 15.1446 2.64562 16.8221 2.41066 18.6141C2.21948 20.0673 3.16732 21.4759 4.60623 22.0009L4.14699 23.4043C1.98032 23.2691 0.108539 24.9104 -0.123558 26.6852C-0.310495 28.1064 0.590021 29.4887 1.9754 30.0403C0.877778 33.5739 0.647986 33.5754 1.0027 33.9135C1.04311 34.1195 1.30367 34.7663 1.3824 34.9626C1.69791 35.7514 2.41889 36.3152 3.26468 36.4337C5.95475 36.81 8.64545 37.3188 11.2468 37.8111C18.9273 39.2649 18.1569 39.0013 24.6028 39.9278C31.7074 40.9467 30.1398 42.1574 33.1228 28.6584L41.1562 22.9929C41.6745 22.6273 42.0153 22.0286 42.1161 21.3064C42.491 18.6167 39.4811 16.9679 37.6356 18.2685ZM26.4949 32.1413C26.4258 31.5214 26.2837 31.1764 25.7864 30.769C29.8529 27.9521 34.4298 24.9542 38.2171 21.8857L38.915 22.8311C38.9878 23.2766 38.863 23.1495 38.8633 23.4184C33.5247 27.1835 30.9445 29.0032 26.4949 32.1413ZM23.4069 33.1309C23.0512 32.625 22.7247 32.0475 22.2986 31.6218C22.3278 31.5555 22.8603 30.3463 23.0054 30.0082C23.2292 30.0143 23.7188 30.1871 23.966 30.3535C24.5091 30.72 24.2788 31.2109 24.7795 31.3C25.0019 31.3399 25.3738 31.6371 25.4429 31.8309C25.5389 32.1016 25.5618 32.5054 25.5222 32.6949C24.878 32.8733 24.1437 33.0133 23.4069 33.1309ZM36.5736 20.2083C36.7672 20.2514 36.9623 20.3312 37.1532 20.4441L37.6386 21.1018C32.9949 24.8701 26.3306 29.1176 25.0531 30.0976C24.7346 29.6277 24.3478 29.4054 23.8112 29.2086C26.7552 27.1325 33.3789 22.4613 36.5736 20.2083ZM5.89013 11.1356C6.04717 9.93433 7.407 8.68086 8.96469 8.68198L7.39854 13.468C6.4081 13.083 5.76073 12.1208 5.89013 11.1356ZM3.37492 18.7408C3.53322 17.5348 4.90084 16.2745 6.47565 16.2882L4.90745 21.0803C3.90402 20.7017 3.24508 19.7333 3.37492 18.7408ZM0.841344 26.8119C0.995362 25.6338 2.30289 24.4047 3.83373 24.3615L2.27654 29.1201C1.32629 28.7176 0.715029 27.7735 0.841344 26.8119ZM4.81578 24.4899C5.47305 24.6911 6.01938 25.1114 6.304 25.6591C6.05358 26.2168 6.73932 26.508 7.40211 26.2913C7.91833 26.1225 8.2494 25.7183 8.14158 25.3885C8.0395 25.0763 7.58037 24.946 7.09376 25.0758C6.67522 24.3741 5.95669 23.8405 5.11514 23.575L7.44455 16.4562C8.11109 16.6851 8.65868 17.1341 8.90628 17.7188C8.70739 18.273 9.40918 18.5075 10.0224 18.307C10.5386 18.1382 10.8697 17.734 10.7618 17.4042C10.6572 17.0842 10.1777 16.9543 9.67779 17.1008C9.28451 16.3805 8.58257 15.8246 7.74541 15.5369L9.93584 8.84282C10.6268 9.07356 11.1955 9.5391 11.4381 10.1484C11.1409 10.7021 11.804 11.0567 12.5188 10.823C13.6804 10.4432 13.4367 9.30974 12.2443 9.59881C11.8613 8.82184 11.1236 8.22166 10.2368 7.92302L10.956 5.72507C18.9816 6.95597 27.0617 6.6363 34.8904 8.05148C35.2652 8.12144 35.5591 8.48651 35.4663 8.95682C35.3288 9.65088 35.1863 10.369 34.9639 11.0374C33.9882 13.9461 33.3426 16.8892 32.7179 19.7358C32.536 20.582 32.418 21.0418 32.2263 22.0832C21.9632 29.3544 22.4079 28.9246 22.3042 29.1726C21.5195 31.0546 20.8216 32.3438 20.408 33.9046C20.3146 34.2526 20.6233 34.5805 20.9763 34.5058C21.9584 34.3031 25.7797 33.8333 26.3254 33.4522L30.8892 30.2336C30.6665 31.3389 29.2668 37.8532 29.2613 37.8852C21.8577 35.3943 13.8316 35.799 1.96273 33.2089L4.81578 24.4899ZM28.5302 39.4925C11.2571 37.2407 11.0681 36.544 3.39963 35.4694C2.89913 35.3998 2.47211 35.0665 2.28585 34.6015C2.23746 34.4804 2.19129 34.3612 2.14532 34.2424C13.9085 36.7579 21.4851 36.3636 28.7522 38.7542C28.6663 39.0451 28.6153 39.2043 28.5302 39.4925Z" fill="#391952"/>
<path d="M15.107 14.7425L27.6786 17.449C27.95 17.5057 28.2016 17.3319 28.2571 17.0755C28.3135 16.8129 28.1462 16.5541 27.8839 16.4974L15.3123 13.7909C14.6774 13.6604 14.4816 14.6073 15.107 14.7425Z" fill="#391952"/>
<path d="M13.8754 22.2004C17.3093 22.298 20.7717 22.5913 24.1669 23.0709C24.4155 23.1124 24.6773 22.9335 24.7162 22.6572C24.7542 22.3918 24.5685 22.1453 24.3025 22.1079C20.8718 21.6226 17.3733 21.3268 13.9033 21.2273C13.61 21.2152 13.4104 21.4319 13.4028 21.6999C13.3952 21.9685 13.6068 22.1928 13.8754 22.2004Z" fill="#391952"/>
<path d="M19.9214 28.674C20.007 28.4193 19.8695 28.1431 19.6148 28.0582C17.1382 27.2289 14.5616 26.7195 11.9558 26.5452C11.6941 26.5256 11.4559 26.7302 11.4382 26.9982C11.4198 27.2662 11.6225 27.4981 11.8912 27.5159C14.4133 27.685 16.9083 28.1779 19.3056 28.9806C19.5641 29.0668 19.8377 28.9254 19.9214 28.674Z" fill="#391952"/>
<path d="M35.5905 5.20996L36.2462 3.68025C36.352 3.43316 36.2373 3.14711 35.9909 3.04131C35.7419 2.93582 35.4574 3.04954 35.3516 3.29695L34.6959 4.82666C34.4428 5.41785 35.3367 5.80067 35.5905 5.20996Z" fill="#391952"/>
<path d="M38.6417 3.90944L36.7885 5.66185C36.3217 6.10368 36.9885 6.81124 37.4576 6.36889L39.3107 4.61649C39.5058 4.4318 39.5141 4.1239 39.3297 3.92876C39.146 3.733 38.8381 3.72444 38.6417 3.90944Z" fill="#391952"/>
<path d="M38.795 8.56146L41.0897 8.34288C41.3571 8.31754 41.5535 8.07996 41.5281 7.81228C41.5028 7.54492 41.2715 7.34789 40.9972 7.37418L38.7025 7.59276C38.0633 7.65335 38.1517 8.62579 38.795 8.56146Z" fill="#391952"/>
</g>
<defs>
<clipPath id="clip0_507_256">
<rect width="42" height="42" fill="white" transform="translate(0 0.751953)"/>
</clipPath>
</defs>
</svg>
