<svg width="84" height="78" viewBox="0 0 84 78" fill="none" xmlns="http://www.w3.org/2000/svg">
<path d="M36 26.5L29 12V9.5L70 42L68.5 43H42.5L41 39L36 26.5Z" fill="#391952"/>
<path d="M10 33.5L26 9H27L36.5 26.5L41.5 42.5L68 44H72L54.5 73L10 33.5Z" fill="#B97FE6"/>
<path d="M55.6539 74.4806C54.9671 75.0149 54.3694 75.0872 53.7674 74.7699C53.4309 74.6016 53.1254 74.353 52.8405 74.107C45.9733 68.1148 39.1177 62.1135 32.2621 56.1122C25.6525 50.331 19.043 44.5499 12.445 38.7597C11.4015 37.8507 10.3903 36.9354 9.36999 36.0083C8.29275 35.0321 8.17456 34.3758 8.9165 33.1439C10.2569 30.9039 11.6361 28.6897 12.9946 26.473C16.6721 20.488 20.3379 14.5121 24.0153 8.52713C24.2648 8.12727 24.4961 7.70411 24.8323 7.3677C25.0754 7.10374 25.4531 6.77251 25.7662 6.79073C26.782 6.82341 27.8585 6.62184 28.7712 7.31459C29.8276 8.11998 30.9215 8.87748 31.9547 9.70099C37.7289 14.3364 43.5057 18.9512 49.2657 23.6164C56.7929 29.7123 64.2968 35.8264 71.8124 41.9314C72.0701 42.1425 72.3394 42.3445 72.5737 42.5736C73.2496 43.2262 73.3768 43.8941 72.9944 44.7715C72.8523 45.0692 72.6804 45.3526 72.5175 45.6476C67.1381 54.9209 61.7495 64.1825 56.361 73.4441C56.1206 73.8556 55.853 74.2322 55.6862 74.4741L55.6539 74.4806ZM26.5219 10.692C25.644 11.7492 12.9894 32.3505 12.5489 33.4414C13.4962 33.6022 14.4137 33.7488 15.3494 33.9186C16.2437 34.0833 17.1765 33.9373 18.2223 34.3208C16.8163 35.2276 15.314 35.2181 13.7693 35.6344C14.2289 36.081 14.5449 36.4151 14.8958 36.7219C15.8526 37.5674 16.821 38.4038 17.7895 39.2403C22.4919 43.3628 27.2151 47.488 31.9266 51.6222C36.677 55.7823 41.4066 59.9398 46.157 64.0999C47.7974 65.5358 49.4353 66.9924 51.064 68.4374C51.2052 68.5707 51.3489 68.6833 51.5159 68.7779C51.6531 68.8582 51.7697 69.1041 51.9986 68.8699C51.9878 68.2797 51.9383 67.6636 51.9832 67.0489C52.0229 66.4755 52.3978 65.9967 52.7666 65.9904C53.2208 65.9737 53.4164 66.3452 53.5965 66.6727C53.761 66.9562 53.879 67.276 53.9762 67.5931C54.1396 68.1393 54.2707 68.6921 54.4341 69.2383C54.4938 69.4351 54.4254 69.7314 54.7566 69.773C55.3889 69.0005 68.8286 45.9739 69.2782 44.8946C66.322 43.809 54.438 43.6655 49.92 44.6555C49.8479 45.067 49.7964 45.4812 49.6828 45.8876C49.6053 46.1723 49.379 46.3858 49.0542 46.3766C48.7385 46.3791 48.4964 46.2121 48.3849 45.9247C48.2333 45.5376 48.1463 45.1377 48.0231 44.6911C47.4033 44.687 46.8456 44.6907 46.2788 44.6828C44.9447 44.6733 43.6183 44.6017 42.3202 44.3023C41.206 44.047 40.468 43.3866 40.1437 42.2734C40.062 42.0003 39.992 41.7181 39.9103 41.445C39.4408 39.8089 38.9622 38.1611 38.472 36.5223C38.3838 36.2168 38.2426 35.9152 38.1285 35.6485C37.9266 35.5812 37.7933 35.554 37.6626 35.506C36.644 35.1575 36.6037 34.8896 37.4274 34.0991C37.4973 34.0447 37.5011 33.9295 37.5463 33.8195C37.5178 33.7108 37.4944 33.5606 37.4477 33.4286C35.8805 29.2048 34.2021 25.0301 32.1135 21.0249C30.4227 17.7951 28.7229 14.5536 27.0321 11.3238C26.9039 11.0869 26.6967 10.8927 26.5154 10.6596L26.5219 10.692ZM31.2631 12.7269C31.2631 12.7269 31.1311 12.7734 31.0755 12.798C31.1442 13.0064 31.2013 13.2239 31.314 13.4167C31.7104 14.1184 32.1301 14.8019 32.5266 15.5035C34.1913 18.4356 35.777 21.4105 37.1494 24.4952C39.3835 29.5282 41.3512 34.675 42.738 40.0118C42.8612 40.4584 42.8615 40.9632 43.3859 41.3969C44.1571 41.4515 45.0656 41.5864 45.9507 41.5712C47.5642 41.5316 49.1804 41.4712 50.7861 41.3255C55.4714 40.9348 60.1658 40.724 64.8748 40.9883C65.0728 41.0026 65.2811 40.934 65.6873 40.8798C54.1116 31.4057 42.6977 22.0676 31.2838 12.7294L31.2631 12.7269Z" fill="#391952"/>
<path d="M21.349 5.53256C21.5287 5.18704 21.6075 4.9761 21.7458 4.79364C22.4957 3.8361 23.4903 3.19315 24.5459 2.65247C25.1305 2.3472 25.7424 2.07687 26.3517 1.82726C26.8058 1.64232 27.2716 1.61659 27.7298 1.82123C28.3071 2.08287 28.4473 2.81548 27.9766 3.21915C27.7994 3.37571 27.5925 3.51802 27.3842 3.58656C25.6985 4.20599 23.9947 4.80212 22.3026 5.3892C22.062 5.46419 21.7786 5.46022 21.3516 5.51185L21.349 5.53256Z" fill="#391952"/>
<path d="M58.9241 76.9305C59.0493 76.515 59.1462 76.1591 59.2818 75.8291C59.7042 74.7149 60.1241 73.6213 60.5879 72.5122C60.7351 72.1732 60.9446 71.8419 61.2084 71.5805C61.3299 71.4486 61.6482 71.4254 61.841 71.4811C61.9743 71.5083 62.1324 71.7595 62.1441 71.9187C62.1728 72.1956 62.1458 72.4972 62.0502 72.7586C61.571 73.992 61.0296 75.2175 60.175 76.2565C59.8892 76.6098 59.5892 76.9928 58.9241 76.9305Z" fill="#391952"/>
<path d="M27.8244 35.3981C27.1142 35.7822 26.5966 35.7174 26.0945 35.6965C25.2884 35.6691 24.4848 35.6209 23.7019 35.5754C22.9397 35.5324 22.2239 35.285 21.556 34.9068C21.0939 34.6491 20.9203 34.354 21.0236 34.0304C21.136 33.7185 21.4399 33.5568 21.9653 33.5596C22.1956 33.5674 22.4376 33.5662 22.6628 33.6155C24.3775 33.9461 26.0342 34.4902 27.836 35.389L27.8244 35.3981Z" fill="#391952"/>
<path d="M49.7049 51.9682C49.6401 51.8129 49.4549 51.5268 49.4106 51.2058C49.3028 50.4667 49.2389 49.7121 49.2371 48.9653C49.2266 48.7116 49.3868 48.4373 49.5122 48.1901C49.6492 47.9339 50.0205 47.9068 50.2342 48.1334C50.8208 48.7432 51.4318 51.1857 51.193 52.0075C51.1065 52.2806 50.9604 52.5252 50.6305 52.5574C50.2591 52.5845 50.0105 52.3851 49.7023 51.9889L49.7049 51.9682Z" fill="#391952"/>
<path d="M35.7953 35.3877C34.7021 35.6397 33.6153 35.9241 32.5091 36.1114C32.0148 36.1967 31.4791 36.1085 30.9782 35.9931C30.489 35.8687 30.3992 35.153 30.8041 34.8567C30.9903 34.7118 31.2063 34.5811 31.4302 34.5566C31.9335 34.483 32.4691 34.4029 32.9777 34.4561C33.7761 34.5457 34.5526 34.7272 35.3317 34.8879C35.5064 34.9203 35.6592 35.0446 35.8171 35.1275C35.7952 35.2194 35.794 35.3139 35.772 35.4058L35.7953 35.3877Z" fill="#391952"/>
<path d="M52.4048 56.9754C52.8895 57.9825 52.982 59.0141 53.0746 60.0457C53.1059 60.4703 53.0751 60.887 52.8075 61.2636C52.5541 61.6104 52.0832 61.6775 51.841 61.3422C51.6415 61.0859 51.4291 60.7648 51.4237 60.4697C51.4193 59.5754 51.4885 58.6797 51.5876 57.7983C51.6339 57.4256 51.8343 57.0827 52.3958 56.9638L52.4048 56.9754Z" fill="#391952"/>
</svg>
