<svg width="109" height="112" viewBox="0 0 109 112" fill="none" xmlns="http://www.w3.org/2000/svg">
<path d="M32.0777 90.6588C32.1199 91.5581 32.2107 92.3617 32.2028 93.1582C32.1935 94.0119 31.9676 94.8273 31.5619 95.5824C31.1563 96.3374 30.5932 96.942 29.7739 97.2615C28.5685 97.7214 27.3931 97.2948 26.9946 96.0327C26.1786 93.4843 25.9622 90.9479 27.7786 88.6949C27.8332 88.6263 27.842 88.5392 27.9026 88.37C27.751 88.1189 27.5847 87.8001 27.3875 87.5306C26.8811 86.8596 26.3747 86.1887 25.8315 85.54C24.168 83.5017 22.1035 82.0471 19.7249 81.0012C15.355 79.0952 10.8447 78.0144 6.08014 78.1953C4.85586 78.2477 3.64047 78.213 2.41475 78.1947C1.9831 78.1889 1.5397 78.1289 1.13465 77.9895C0.552839 77.8034 0.245227 77.3448 0.236733 76.7931C0.241504 76.2385 0.534907 75.8627 1.00793 75.675C1.3277 75.5489 1.66661 75.4471 2.00988 75.4295C5.32621 75.2928 8.64841 75.1832 11.9511 75.6882C15.6971 76.2532 19.2527 77.5408 22.6282 79.2791C24.2056 80.087 25.5838 81.1935 26.822 82.4865C28.0793 83.8038 29.2187 85.2176 30.2033 86.7501C30.3711 87.0118 30.5492 87.2571 30.7332 87.5295C32.691 87.6587 34.5322 88.2107 36.304 89.0191C39.6325 90.5404 41.9734 93.0139 43.2558 96.4974C43.9633 98.4164 44.0489 100.413 43.8208 102.436C43.7453 103.048 43.574 103.667 43.1464 104.129C42.9327 104.36 42.6806 104.542 42.3345 104.419C42.0016 104.292 41.8471 104.027 41.8326 103.704C41.7917 103.131 41.8039 102.546 41.763 101.973C41.6401 100.51 41.5438 99.0401 41.0306 97.6325C40.2629 95.4995 38.9528 93.8104 37.1135 92.5625C35.7116 91.603 34.1444 91.0342 32.5197 90.6482C32.4019 90.617 32.2722 90.6593 32.0836 90.6859L32.0777 90.6588ZM29.3007 92.9639L29.3935 92.9438L29.3054 92.5371C29.3054 92.5371 29.2391 92.5514 29.2126 92.5572L29.3007 92.9639Z" fill="#391952"/>
<path d="M93 16.5L47.5 68.5L41 62L86 12.5L93 16.5Z" fill="#B97FE6"/>
<path d="M93.2085 15.9548L47.938 68.1547L55.2679 73.7021L98.5 22.9998L93.2085 15.9548Z" fill="#391952"/>
<path d="M63.3271 35.6681C66.6238 32.0377 69.8981 28.4091 73.2069 24.7889C77.1257 20.5007 81.079 16.221 85.0219 11.9534C85.3012 11.6495 85.5824 11.3681 85.898 11.0951C86.5908 10.4766 87.1887 9.79827 87.4516 8.87657C87.6263 8.25465 88.0531 7.8264 88.5646 7.47017C89.8639 6.55543 91.3047 6.13593 92.8641 6.06718C95.3443 5.9696 97.6196 6.6765 99.6756 8.0089C101.315 9.07071 102.729 10.3983 103.704 12.1439C104.232 13.0923 104.626 14.0738 104.793 15.1525C105.101 17.2892 104.628 19.2185 103.149 20.8343C99.8999 24.3596 96.9655 28.1523 93.7752 31.7067C90.6175 35.2471 87.5204 38.839 84.3748 42.3898C81.2106 45.987 78.0118 49.5758 74.8475 53.1731C69.6942 59.0351 64.541 64.897 59.4481 70.8104C58.3382 72.1153 57.0238 73.1213 55.687 74.1291C55.3799 74.3676 54.9621 74.4912 54.5788 74.6232C52.7498 75.254 50.9088 75.8744 49.0798 76.5052C46.6698 77.3289 44.2477 78.1423 41.8395 78.9883C40.3509 79.513 38.866 80.0823 37.3895 80.6173C36.8653 80.8169 36.3309 81.0287 35.7994 81.1388C34.592 81.382 33.781 80.5464 34.0342 79.3666C34.1406 78.8739 34.3141 78.376 34.5136 77.9209C36.2605 73.7843 37.5316 69.472 39.0112 65.2331C39.4754 63.8787 40.057 62.5825 40.5798 61.2572C40.9256 60.3851 41.5217 59.6844 42.142 59.0042C44.7464 56.1385 47.3612 53.2608 49.9656 50.3951C54.047 45.8912 58.1303 41.4097 62.2117 36.9058C62.5835 36.4932 62.9414 36.048 63.3011 35.6251C63.3253 35.6457 63.3374 35.656 63.3616 35.6766L63.3271 35.6681ZM48.2237 66.2393C48.3422 66.1735 48.4951 66.1162 48.5876 66.0074C62.6098 49.9891 76.6097 33.9725 90.6198 17.9439C90.6712 17.8835 90.6603 17.7492 90.6754 17.658C89.6431 16.5925 87.2885 15.0476 85.8488 14.5101C85.6088 14.7433 85.3585 14.9885 85.11 15.2561C80.9004 19.9841 76.7029 24.7225 72.4934 29.4506C68.1689 34.2892 63.8427 39.1054 59.5182 43.944C54.4193 49.644 49.3102 55.356 44.2131 61.0784C44.0281 61.2959 43.9036 61.5648 43.7754 61.789C44.8597 63.3569 46.9931 65.5049 48.2152 66.2737L48.2237 66.2393ZM50.0342 68.1542C51.4425 69.4147 52.7843 70.4104 54.2458 71.2163C54.729 71.4815 55.1395 71.2685 55.4702 70.9043C56.1401 70.1413 56.7839 69.3354 57.4538 68.5725C62.0231 63.4215 66.6044 58.2809 71.1719 53.1076C77.3584 46.1046 83.5346 39.1136 89.7211 32.1106C91.7839 29.7837 93.8587 27.4671 95.9197 25.1178C96.682 24.2461 96.7134 23.9397 96.1927 22.9344C96.099 22.7506 95.995 22.5788 95.8807 22.4191C95.0268 21.1929 93.974 20.1516 92.8492 19.1948C92.7525 19.1125 92.5614 19.1166 92.377 19.0638C78.116 35.1914 64.4838 51.8539 50.0221 68.144L50.0342 68.1542ZM40.2967 70.3873C42.0297 71.4867 43.296 72.9387 44.257 74.6516C44.3229 74.7702 44.4747 74.8368 44.5714 74.9191C47.0026 74.2176 50.0686 73.0148 50.932 72.4165C49.9281 71.5626 48.9141 70.7208 47.9326 69.8651C46.9754 69.03 46.0593 68.1465 45.1002 67.289C44.117 66.411 43.4046 65.2635 42.2859 64.5202C41.7509 65.4187 40.6218 68.7064 40.2761 70.4115L40.2967 70.3873ZM101.633 18.254C101.739 18.0316 101.861 17.8643 101.913 17.6799C102.362 16.2705 102.063 14.9548 101.421 13.7004C99.7962 10.4647 95.714 8.30407 92.1267 8.77186C91.5813 8.84937 91.0099 8.88393 90.5142 9.29519C91.8862 10.1083 93.2854 10.8404 94.5632 11.7399C95.8892 12.6805 97.1555 13.716 98.36 14.824C99.5041 15.8805 100.515 17.0941 101.635 18.2764L101.633 18.254ZM98.8373 21.8105C99.4455 21.5366 99.6644 21.1813 99.4164 20.7621C99.0209 20.0508 98.5927 19.3534 98.0908 18.7182C96.8275 17.1646 95.3569 15.8303 93.7303 14.6549C92.0795 13.4588 90.3997 12.3214 88.4871 11.5066C88.0149 11.7922 87.6564 12.0911 87.6486 12.6884C92.1746 14.7684 96.0307 17.6113 98.8355 21.7881L98.8373 21.8105Z" fill="#391952"/>
<path d="M84.0506 9.4196C83.6146 8.90294 83.6913 8.32264 84.0008 7.83626C84.3992 7.1964 84.8665 6.57352 85.3598 5.9936C86.2763 4.94068 87.3797 4.10919 88.5853 3.42712C89.0593 3.16395 89.6216 3.01754 90.1512 2.88501C90.306 2.85008 90.5648 2.98693 90.6549 3.12606C90.745 3.26518 90.7221 3.53721 90.6435 3.6786C90.4966 3.94931 90.2772 4.15829 90.0577 4.36726C88.6158 5.74375 87.186 7.13053 85.7301 8.47436C85.2586 8.90619 84.8064 9.4378 84.0488 9.39723L84.0506 9.4196Z" fill="#391952"/>
<path d="M73.5127 48.935C72.0944 50.6023 70.6761 52.2696 69.2578 53.9368C68.8981 54.3597 68.4538 54.7106 68.0076 55.039C67.6986 55.2552 67.325 55.2289 67.0208 54.9493C66.7063 54.6818 66.6428 54.3154 66.8066 53.9758C67.0406 53.5293 67.309 53.0912 67.6379 52.7046C69.171 50.9267 70.706 49.1713 72.2755 47.4243C73.6273 45.9087 74.9894 44.381 76.3774 42.8963C76.8538 42.3853 77.4252 41.9342 77.988 41.5175C78.1374 41.4155 78.5231 41.4521 78.658 41.5876C78.8031 41.7111 78.889 42.0757 78.802 42.2516C78.5306 42.7912 78.2368 43.3326 77.8583 43.802C76.4334 45.5261 74.9498 47.2211 73.5006 48.9247L73.5127 48.935Z" fill="#B97FE6"/>
</svg>
