<svg width="54" height="63" viewBox="0 0 54 63" fill="none" xmlns="http://www.w3.org/2000/svg">
<path d="M10.5 58C18.1 42 8.33333 27.3333 2.5 22L16 18.5L17.5 24H27.5V14L40 11C46.4 17.8 47.6667 37.5 47.5 46.5H46L10.5 58Z" fill="#B97FE6"/>
<path d="M44.8838 49.6815C41.7572 50.2286 38.8816 51.0722 36.0517 52.0982C30.5287 54.0589 25.0514 56.1792 19.6654 58.4819C17.4517 59.4395 15.1238 60.1463 12.8416 60.9214C11.7462 61.2862 10.5366 61.4458 9.57807 62.1754C9.41831 62.3122 9.19009 62.3578 8.96187 62.4034C7.72948 62.677 6.58838 61.8106 6.47427 60.5566C6.4058 59.6903 6.79377 59.0063 7.25022 58.3223C10.0573 54.1273 11.0159 49.4307 10.7648 44.5061C10.3768 36.8228 7.56972 30.1198 2.22936 24.534C1.61316 23.8957 1.01979 23.2573 0.449241 22.5961C-0.235421 21.7753 -0.144134 20.909 0.768748 20.3846C1.3393 20.0654 1.97832 19.8374 2.59451 19.6778C4.94518 19.1079 7.29586 18.5835 9.66936 18.0363C10.9474 17.7399 12.2483 17.4435 13.5035 17.1015C13.9143 16.9875 14.2794 16.7595 14.6674 16.5771C14.713 14.434 14.7815 12.4049 14.8043 10.353C14.8043 8.84825 15.2151 7.5031 15.8998 6.15795C16.3334 5.29159 16.9724 4.79 17.9081 4.63041C18.045 4.60761 18.2048 4.56201 18.3417 4.56201C21.126 4.60761 23.9103 4.56201 26.6718 5.04079C26.9685 5.08639 27.2423 5.17759 27.5162 5.26879C28.7714 5.67917 29.4789 6.52274 29.5017 7.86789C29.5017 9.09904 29.5017 10.353 29.5017 11.7209C29.9354 11.7209 30.3005 11.7893 30.5972 11.7209C32.7196 11.151 34.8421 10.581 36.9645 9.9654C37.3753 9.8514 37.9002 9.71461 38.1285 9.41823C38.8131 8.52906 39.5663 8.57465 40.4563 8.98504C40.7758 9.12183 41.1638 9.07624 41.529 9.14464C43.4232 9.41823 43.9709 10.3074 43.3775 12.2225C43.3091 12.4277 43.2406 12.6329 43.1493 12.8609C43.7427 14.1832 44.3817 15.5056 44.9294 16.8507C47.8735 23.9641 49.5623 31.351 50.0644 39.0343C50.2242 41.6106 50.0188 44.1641 49.6536 46.7176C49.5395 47.5839 49.2885 48.4503 48.969 49.2483C48.2615 50.981 47.0747 51.2546 45.5 50.1602C45.3174 50.0462 45.1577 49.9095 44.8838 49.7043V49.6815ZM6.29168 22.9609C6.74813 23.5081 6.97635 23.7817 7.20457 24.0325C9.00751 25.9932 10.4909 28.1819 11.6092 30.5758C15.2836 38.3731 16.1052 46.444 13.7317 54.7885C13.5948 55.2444 13.2296 55.7232 13.686 56.2704C14.9869 56.0424 16.1508 55.4268 17.3147 54.8569C22.9974 52.0982 28.8627 49.7499 34.7965 47.6067C37.6949 46.558 40.6389 45.646 43.6971 45.1216C44.3361 45.0076 44.9294 44.8025 45.5 44.6429C46.5955 37.6891 42.7613 19.3586 39.1555 14.1376C35.8006 14.662 31.3275 15.9844 29.4333 17.0787C29.4333 17.8083 29.4789 18.6063 29.4333 19.4042C29.3648 20.4986 29.2963 21.593 29.0909 22.6873C28.6801 24.876 27.927 25.5372 25.7361 25.8108C23.9103 26.016 22.0846 26.1756 20.2588 26.358C19.6654 26.4036 19.0949 26.4492 18.5015 26.4264C16.5616 26.358 15.6944 25.6056 15.352 23.7361C15.2151 22.9609 15.0782 22.1857 14.9184 21.2966C12.0429 21.8437 9.32702 22.3909 6.29168 22.9609ZM25.1884 21.7525C25.3025 21.2738 25.4394 21.0002 25.4166 20.7266C25.4166 17.2155 25.3709 13.7045 25.3253 10.1934C25.3253 9.91981 25.2112 9.64621 25.1427 9.34982C24.0473 8.91664 22.929 9.05344 21.8563 9.07624C20.7152 9.09903 19.5285 8.82544 18.4559 9.39542C18.3646 13.7729 18.9808 20.7266 19.597 22.3453C21.3771 22.1629 23.18 21.9805 25.1655 21.7753L25.1884 21.7525Z" fill="#391952"/>
<path d="M49.7221 9.48667C49.608 9.69186 49.5167 10.0794 49.2656 10.3074C48.9005 10.6494 48.4212 10.4898 48.0561 10.2162C47.5996 9.87425 47.1204 9.50947 46.7552 9.05349C45.6826 7.75394 44.6556 6.43159 43.6058 5.10924C43.5145 4.99524 43.4232 4.88125 43.3547 4.74445C43.0808 4.26567 43.0124 3.76409 43.3547 3.30811C43.6742 2.87492 44.1991 2.62413 44.7012 2.78373C45.3859 2.98892 46.139 3.23971 46.6639 3.69569C48.2158 5.01804 49.1287 6.75077 49.6536 8.6887C49.6992 8.89389 49.6992 9.12188 49.7221 9.48667Z" fill="#391952"/>
<path d="M53.3052 7.04707C52.3466 7.36626 51.7304 6.97868 51.2512 6.4087C50.0416 4.94956 49.5852 3.21683 49.6308 1.3245C49.6308 1.11931 49.7221 0.891316 49.8134 0.708923C50.1329 -0.0206483 51.0458 -0.225846 51.6391 0.275735C51.8674 0.458127 52.0956 0.686121 52.2097 0.936911C53.0769 2.89763 53.4877 4.92676 53.3052 7.04707Z" fill="#391952"/>
<path d="M35.5039 25.4688C36.8048 25.4688 37.6036 25.9475 37.8318 26.8139C38.0828 27.7943 37.5807 28.7062 36.3255 29.1166C35.2985 29.4586 34.2031 29.6638 33.1304 29.869C30.6885 30.325 28.2465 30.8037 25.9187 31.6701C24.6863 32.1261 23.5223 32.7417 22.3356 33.2888C21.9933 33.4484 21.6966 33.6536 21.3543 33.7904C20.6696 34.0868 20.0306 34.0184 19.7339 33.608C19.3916 33.1293 19.46 32.6049 19.7339 32.1717C20.0762 31.6245 20.4642 31.0773 20.9206 30.6213C21.902 29.5954 23.1116 28.9114 24.3668 28.3186C27.6988 26.7227 31.2818 26.0159 34.9106 25.4915C35.116 25.4687 35.3442 25.4688 35.5039 25.4688Z" fill="#391952"/>
<path d="M24.6178 46.5806C23.7505 46.6262 23.2941 46.421 23.0202 45.9195C22.7692 45.4635 22.9518 44.7795 23.5223 44.3919C24.2298 43.8903 24.9829 43.3888 25.8045 43.1152C27.9954 42.34 30.2548 41.7016 32.4686 41.0177C32.7424 40.9265 33.0391 40.9264 33.3358 40.9036C34.2943 40.8808 35.0246 41.3368 35.23 42.0664C35.4354 42.8416 35.0703 43.5939 34.2487 44.0499C33.9976 44.1867 33.7238 44.3235 33.4499 44.3919C30.6884 45.1215 27.9498 45.8283 25.1883 46.535C24.9145 46.6034 24.6178 46.6034 24.6406 46.6034L24.6178 46.5806Z" fill="#391952"/>
<path d="M23.5452 40.6071C23.2257 40.5387 22.7008 40.5159 22.2215 40.3563C21.3771 40.0828 21.1032 38.9656 21.8107 38.4184C23.4082 37.1645 25.3025 36.6173 27.3108 36.7085C27.9727 36.7313 28.566 37.1417 28.7258 37.894C28.8627 38.6236 28.5204 39.1708 27.927 39.5584C26.649 40.4019 25.2112 40.5387 23.5452 40.6071Z" fill="#391952"/>
</svg>
