<svg width="25" height="24" viewBox="0 0 25 24" fill="none" xmlns="http://www.w3.org/2000/svg">
<path d="M13.0306 14.6035C12.9371 15.2341 12.8436 15.7246 12.8202 16.2384C12.7033 17.6632 12.5864 19.0879 12.4929 20.4893C12.4227 21.4002 12.1889 22.2644 11.6044 22.9885C10.5991 24.2264 9.07936 24.1096 8.23768 22.7549C7.69993 21.8907 7.60641 20.9097 7.65317 19.9288C7.69993 18.8077 7.81683 17.6865 7.88697 16.5654C7.93373 15.818 7.88697 15.094 7.88697 14.2064C6.76473 13.9962 5.66585 13.786 4.59036 13.5524C3.77206 13.3889 2.97714 13.2488 2.18221 13.0152C1.69123 12.8751 1.20026 12.6182 0.802793 12.3145C0.171529 11.824 -0.132412 11.1467 0.054629 10.3292C0.24167 9.53507 0.756019 8.99787 1.57432 8.85773C2.15883 8.76431 2.76672 8.78766 3.35122 8.83437C4.98783 8.97451 6.60106 9.13802 8.35457 9.30152C8.51823 8.62417 8.65852 8.0636 8.7988 7.50304C9.17288 5.89144 9.5002 4.27984 9.94442 2.69159C10.1548 1.99089 10.5289 1.31355 10.9498 0.706275C11.3472 0.0990029 12.0019 -0.134573 12.7267 0.0756363C13.3579 0.262489 13.7554 0.729629 13.8489 1.36026C13.9424 1.94417 13.9658 2.55145 13.919 3.13537C13.8255 4.32655 13.6619 5.51774 13.5216 6.70893C13.4281 7.59648 13.241 8.48402 13.4047 9.32486C14.1295 9.83871 14.901 9.67522 15.6492 9.69857C17.3793 9.74529 19.1094 9.74529 20.8162 9.792C21.4942 9.792 22.1722 9.81536 22.8269 9.9555C24.1128 10.2124 24.7674 11.5204 24.2764 12.7349C23.879 13.7393 23.0841 14.2765 22.0787 14.4166C21.05 14.5567 19.9979 14.6502 18.9458 14.6502C17.5196 14.6502 16.0934 14.5801 14.6672 14.5334C14.1529 14.5334 13.6619 14.5567 13.0306 14.5801V14.6035Z" fill="#391952"/>
</svg>
