<svg width="135" height="41" viewBox="0 0 135 41" fill="none" xmlns="http://www.w3.org/2000/svg">
<rect y="0.751953" width="135" height="40" rx="6" fill="#5A7AF9"/>
<path d="M16.595 24.352C16.595 26.392 18.04 27.837 20.42 27.837C22.783 27.837 24.33 26.307 24.33 24.777C24.33 20.884 18.805 21.87 18.805 20.017C18.805 19.422 19.4 18.827 20.42 18.827C21.44 18.827 22.035 19.405 22.035 20.357H23.99C23.99 18.402 22.545 16.957 20.42 16.957C18.125 16.957 16.68 18.402 16.68 20.034C16.68 23.757 22.205 22.737 22.205 24.692C22.205 25.372 21.627 25.967 20.42 25.967C19.315 25.967 18.635 25.304 18.635 24.352H16.595ZM30.697 25.372C30.612 25.491 30.493 25.593 30.357 25.678C30.102 25.831 29.779 25.967 29.252 25.967C28.232 25.967 27.654 25.372 27.467 24.607H32.907L32.941 24.352C32.958 24.199 32.992 24.029 32.992 23.842C32.992 21.462 31.292 19.847 29.252 19.847C27.144 19.847 25.342 21.632 25.342 23.842C25.342 26.052 27.144 27.837 29.252 27.837C31.02 27.837 32.329 26.545 32.737 25.372H30.697ZM27.382 23.247C27.569 22.38 28.232 21.717 29.252 21.717C30.272 21.717 30.935 22.38 31.122 23.247H27.382ZM34.433 27.752H36.388V23.417C36.388 22.397 37.051 21.717 38.003 21.717C38.955 21.717 39.618 22.397 39.618 23.417V27.752H41.573V23.162C41.573 21.122 40.281 19.847 38.428 19.847C37.765 19.847 37.238 20.068 36.847 20.272C36.626 20.391 36.405 20.544 36.218 20.697L35.878 19.932H34.433V27.752ZM49.1447 27.752H50.5897V17.042H48.6347V20.612C48.4817 20.476 48.2947 20.357 48.0907 20.238C47.7337 20.051 47.2237 19.847 46.5947 19.847C44.6397 19.847 42.9397 21.53 42.9397 23.842C42.9397 26.154 44.6397 27.837 46.5947 27.837C47.2747 27.837 47.8187 27.633 48.2097 27.412C48.4307 27.293 48.6177 27.14 48.8047 26.987L49.1447 27.752ZM46.8497 25.967C45.7447 25.967 44.8947 25.134 44.8947 23.842C44.8947 22.55 45.7447 21.717 46.8497 21.717C47.9547 21.717 48.8047 22.55 48.8047 23.842C48.8047 25.134 47.9547 25.967 46.8497 25.967ZM56.4507 27.752H58.4907V20.782L63.2507 27.752H65.0357V17.042H62.9957V24.012L58.2357 17.042H56.4507V27.752ZM70.5567 21.717C71.6617 21.717 72.5117 22.55 72.5117 23.842C72.5117 25.134 71.6617 25.967 70.5567 25.967C69.4517 25.967 68.6017 25.134 68.6017 23.842C68.6017 22.55 69.4517 21.717 70.5567 21.717ZM70.5567 19.847C68.4487 19.847 66.6467 21.632 66.6467 23.842C66.6467 26.052 68.4487 27.837 70.5567 27.837C72.6647 27.837 74.4667 26.052 74.4667 23.842C74.4667 21.632 72.6647 19.847 70.5567 19.847ZM77.6038 27.752H79.3038L80.7488 23.077L82.1938 27.752H83.8938L86.4438 19.932H84.4888L82.9588 24.947L81.3438 19.932H80.1538L78.5388 24.947L77.0088 19.932H75.0538L77.6038 27.752Z" fill="white"/>
<mask id="path-3-inside-1_309_8197" fill="white">
<path d="M95 0.751953H127C131.418 0.751953 135 4.33368 135 8.75195V32.752C135 37.1702 131.418 40.752 127 40.752H95V0.751953Z"/>
</mask>
<path d="M95 0.751953H127C131.418 0.751953 135 4.33368 135 8.75195V32.752C135 37.1702 131.418 40.752 127 40.752H95V0.751953Z" fill="#172662"/>
<path d="M121.75 19.252H108.25M118 13.252V16.252M112 13.252V16.252M111.85 28.252H118.15C119.41 28.252 120.04 28.252 120.521 28.0067C120.945 27.791 121.289 27.4468 121.505 27.0234C121.75 26.5421 121.75 25.9121 121.75 24.652V18.352C121.75 17.0918 121.75 16.4618 121.505 15.9805C121.289 15.5571 120.945 15.2129 120.521 14.9972C120.04 14.752 119.41 14.752 118.15 14.752H111.85C110.59 14.752 109.96 14.752 109.479 14.9972C109.055 15.2129 108.711 15.5571 108.495 15.9805C108.25 16.4618 108.25 17.0918 108.25 18.352V24.652C108.25 25.9121 108.25 26.5421 108.495 27.0234C108.711 27.4468 109.055 27.791 109.479 28.0067C109.96 28.252 110.59 28.252 111.85 28.252Z" stroke="white" stroke-width="1.5" stroke-linecap="round" stroke-linejoin="round"/>
<path d="M95 0.751953H135H95ZM135 40.752H95H135ZM94 40.752V0.751953H96V40.752H94ZM135 0.751953V40.752V0.751953Z" fill="#516FE4" mask="url(#path-3-inside-1_309_8197)"/>
</svg>
