<svg width="24" height="24" viewBox="0 0 24 24" fill="none" xmlns="http://www.w3.org/2000/svg">
<path d="M6.194 14.6441C6.194 15.8041 5.251 16.7511 4.091 16.7511C2.933 16.7511 1.987 15.8041 1.987 14.6441C1.987 13.4841 2.933 12.5381 4.091 12.5381L6.194 12.5381V14.6441ZM7.255 14.6441C7.255 13.4841 8.199 12.5381 9.359 12.5381C10.515 12.5381 11.462 13.4841 11.462 14.6441V19.9181C11.462 21.0781 10.516 22.0241 9.359 22.0241C8.199 22.0241 7.255 21.0781 7.255 19.9181L7.255 14.6441ZM9.359 6.18907C8.199 6.18907 7.255 5.24107 7.255 4.08207C7.255 2.92307 8.199 1.97607 9.359 1.97607C10.515 1.97607 11.462 2.92207 11.462 4.08207L11.462 6.18907L9.359 6.18907ZM9.359 7.24907C10.515 7.24907 11.462 8.19607 11.462 9.35607C11.462 10.5161 10.516 11.4621 9.359 11.4621L4.092 11.4621C2.934 11.4621 1.988 10.5161 1.988 9.35607C1.988 8.19607 2.934 7.24907 4.092 7.24907L9.359 7.24907ZM17.806 9.35607C17.806 8.19607 18.749 7.24907 19.909 7.24907C21.067 7.24907 22.013 8.19607 22.013 9.35607C22.013 10.5161 21.067 11.4621 19.909 11.4621H17.806V9.35607ZM16.745 9.35607C16.745 10.5161 15.801 11.4621 14.641 11.4621C13.485 11.4621 12.538 10.5161 12.538 9.35607L12.538 4.08207C12.538 2.92207 13.484 1.97607 14.641 1.97607C15.801 1.97607 16.745 2.92207 16.745 4.08207V9.35607ZM14.641 17.8111C15.801 17.8111 16.745 18.7591 16.745 19.9181C16.745 21.0771 15.801 22.0241 14.641 22.0241C13.485 22.0241 12.538 21.0781 12.538 19.9181V17.8111L14.641 17.8111ZM14.641 16.7511C13.485 16.7511 12.538 15.8041 12.538 14.6441C12.538 13.4841 13.484 12.5381 14.641 12.5381H19.909C21.067 12.5381 22.013 13.4841 22.013 14.6441C22.013 15.8041 21.067 16.7511 19.909 16.7511H14.641Z" fill="#391952"/>
</svg>
