<svg width="42" height="43" viewBox="0 0 42 43" fill="none" xmlns="http://www.w3.org/2000/svg">
<path d="M17.0121 23.7246C17.0121 23.3849 16.7367 23.1094 16.3969 23.1094H2.58792C1.83939 23.1094 1.23047 22.5005 1.23047 21.752V3.33987C1.23047 2.59134 1.83939 1.98242 2.58792 1.98242H21C21.7485 1.98242 22.3575 2.59134 22.3575 3.33987V17.1489C22.3575 17.4886 22.6329 17.7641 22.9727 17.7641C23.3125 17.7641 23.5879 17.4886 23.5879 17.1489V3.33987C23.5879 1.91286 22.427 0.751953 21 0.751953H2.58792C1.16091 0.751953 0 1.91286 0 3.33987V21.752C0 23.179 1.16091 24.3399 2.58792 24.3399H16.3969C16.7367 24.3399 17.0121 24.0644 17.0121 23.7246Z" fill="#391952"/>
<path d="M39.412 19.1641H34.1515C33.8117 19.1641 33.5362 19.4395 33.5362 19.7793C33.5362 20.1191 33.8117 20.3945 34.1515 20.3945H39.412C40.1606 20.3945 40.7695 21.0034 40.7695 21.752V40.1641C40.7695 40.9126 40.1606 41.5215 39.412 41.5215H21C20.2514 41.5215 19.6425 40.9126 19.6425 40.1641V21.752C19.6425 21.0034 20.2514 20.3945 21 20.3945H31.5212C31.861 20.3945 32.1365 20.1191 32.1365 19.7793C32.1365 19.4395 31.861 19.1641 31.5212 19.1641H21C19.573 19.1641 18.412 20.325 18.412 21.752V40.1641C18.412 41.5911 19.573 42.752 21 42.752H39.412C40.8391 42.752 42 41.5911 42 40.1641V21.752C42 20.325 40.8391 19.1641 39.412 19.1641Z" fill="#391952"/>
<path d="M17.7121 7.32758H12.4092V6.62769C12.4092 6.28791 12.1337 6.01245 11.7939 6.01245C11.4542 6.01245 11.1787 6.28791 11.1787 6.62769V7.32758H5.87579C5.53602 7.32758 5.26056 7.60304 5.26056 7.94281C5.26056 8.28258 5.53602 8.55805 5.87579 8.55805H14.9358C14.5815 9.69615 13.6938 11.9913 11.791 14.2821C10.6289 12.8845 9.84176 11.4794 9.32037 10.3181C9.18116 10.0082 8.81727 9.86964 8.50711 10.0088C8.19711 10.148 8.05865 10.512 8.19777 10.822C8.77371 12.1049 9.65202 13.6653 10.9619 15.209C10.0281 16.1777 8.89741 17.1169 7.53184 17.9363C7.24047 18.1112 7.14597 18.4891 7.32086 18.7805C7.43619 18.9727 7.63996 19.0792 7.84897 19.0792C7.95668 19.0792 8.06586 19.0509 8.16496 18.9914C9.61265 18.1228 10.8084 17.1291 11.7907 16.1198C12.7841 17.1397 13.9811 18.1264 15.4228 18.9914C15.5218 19.0509 15.631 19.0792 15.7387 19.0792C15.9478 19.0792 16.1515 18.9727 16.2669 18.7805C16.4417 18.4891 16.3472 18.1112 16.0559 17.9363C14.6879 17.1156 13.5561 16.177 12.6204 15.2076C13.5875 14.0692 14.2968 12.9527 14.8015 12.0154C15.6182 10.4987 16.0355 9.22365 16.22 8.55796H17.7121C18.0519 8.55796 18.3273 8.2825 18.3273 7.94273C18.3273 7.60296 18.0519 7.32758 17.7121 7.32758Z" fill="#391952"/>
<path d="M31.0434 24.972C30.9066 24.6394 30.5859 24.4246 30.2263 24.4246C30.226 24.4246 30.2257 24.4246 30.2254 24.4246C29.8654 24.4249 29.5448 24.6404 29.4085 24.9736C29.4066 24.9782 29.4048 24.9829 29.403 24.9875L24.9585 36.6571C24.8376 36.9746 24.9969 37.33 25.3144 37.451C25.3865 37.4784 25.4605 37.4914 25.5333 37.4914C25.7812 37.4914 26.0149 37.3405 26.1083 37.0949L27.0643 34.5849H33.3562L34.3028 37.0932C34.4228 37.4111 34.7776 37.5716 35.0957 37.4516C35.4135 37.3317 35.5741 36.9767 35.4541 36.6588L31.05 24.9887C31.0479 24.9832 31.0457 24.9776 31.0434 24.972ZM27.533 33.3546L30.2247 26.2871L32.8919 33.3546H27.533Z" fill="#391952"/>
<path d="M16.7661 34.4112L14.1359 32.4385C13.8641 32.2346 13.4784 32.2898 13.2745 32.5615C13.0707 32.8333 13.1258 33.219 13.3976 33.4229L14.5513 34.2881H12.4515C10.2526 34.2881 8.46374 32.4992 8.46374 30.3004V26.3552C8.46374 26.0155 8.18828 25.74 7.84851 25.74C7.50874 25.74 7.23328 26.0155 7.23328 26.3552V30.3004C7.23328 33.1778 9.5742 35.5186 12.4515 35.5186H14.5513L13.3976 36.3839C13.1258 36.5877 13.0707 36.9734 13.2745 37.2452C13.3955 37.4064 13.5802 37.4913 13.7672 37.4913C13.8957 37.4913 14.0252 37.4512 14.1359 37.3682L16.7661 35.3956C16.9211 35.2793 17.0122 35.097 17.0122 34.9034C17.0122 34.7097 16.9211 34.5273 16.7661 34.4112Z" fill="#391952"/>
<path d="M25.2339 9.09259L27.8641 11.0653C27.9748 11.1483 28.1043 11.1883 28.2328 11.1883C28.4198 11.1883 28.6046 11.1033 28.7255 10.9422C28.9293 10.6705 28.8742 10.2848 28.6024 10.0809L27.4487 9.21564H29.5485C31.7474 9.21564 33.5363 11.0046 33.5363 13.2034V17.1486C33.5363 17.4883 33.8117 17.7638 34.1515 17.7638C34.4913 17.7638 34.7667 17.4883 34.7667 17.1486V13.2034C34.7667 10.326 32.4258 7.98517 29.5485 7.98517H27.4487L28.6024 7.11991C28.8742 6.91606 28.9293 6.53035 28.7255 6.25858C28.5215 5.98673 28.136 5.93168 27.8641 6.13553L25.2339 8.10822C25.0789 8.22446 24.9878 8.40673 24.9878 8.60041C24.9878 8.79408 25.0789 8.97644 25.2339 9.09259Z" fill="#391952"/>
</svg>
